<svg width="72" height="72" viewBox="0 0 72 72" fill="none" xmlns="http://www.w3.org/2000/svg">
<g filter="url(#filter0_d)">
<path d="M63.6321 65.5V25.692C63.6321 23.8392 62.044 22.3318 60.0923 22.3318H53.637C51.6851 22.3318 50.0972 23.8393 50.0972 25.692V65.5H42.7638V43.7281C42.7638 41.8753 41.1759 40.3679 39.2241 40.3679H32.7687C30.8169 40.3679 29.229 41.8754 29.229 43.7281V65.5H21.8956V54.2245C21.8956 52.3716 20.3076 50.8643 18.3559 50.8643H11.9004C9.94852 50.8643 8.36063 52.3718 8.36063 54.2245V65.5C7.63337 65.5 4 66.0596 4 66.75C4 67.4404 4.58952 68 5.31677 68H66.5201C67.2474 68 67.8369 67.4404 67.8369 66.75C67.8369 66.0596 64.3593 65.5 63.6321 65.5ZM19.2618 65.5H10.994V54.2245C10.994 53.7501 11.4005 53.3643 11.9002 53.3643H18.3556C18.8553 53.3643 19.2618 53.7501 19.2618 54.2245V65.5ZM40.1301 65.5H31.8624V43.7281C31.8624 43.2538 32.2689 42.8679 32.7686 42.8679H39.2239C39.7235 42.8679 40.1301 43.2538 40.1301 43.7281V65.5ZM60.9985 65.5H52.7308V25.692C52.7308 25.2177 53.1372 24.8318 53.637 24.8318H60.0923C60.592 24.8318 60.9985 25.2177 60.9985 25.692V65.5Z" fill="#D4C17F"/>
<path d="M63.6289 5.3145C63.6473 4.97337 63.5209 4.6265 63.2465 4.366C62.9721 4.1055 62.6067 3.98538 62.2473 4.003C62.2261 4.00212 62.2052 4 62.1836 4H54.2171C53.4899 4 52.9004 4.55962 52.9004 5.25C52.9004 5.94037 53.4899 6.5 54.2171 6.5H59.1362L46.119 18.8572L41.21 14.1972C40.9631 13.9629 40.6282 13.8311 40.279 13.8311C39.9297 13.8311 39.5948 13.9629 39.3479 14.1972L15.6764 36.6685C15.1622 37.1566 15.1622 37.9481 15.6764 38.4364C15.9335 38.6802 16.2705 38.8022 16.6075 38.8022C16.9444 38.8022 17.2815 38.6802 17.5385 38.4361L40.279 16.8487L45.1879 21.5087C45.7021 21.9969 46.5359 21.9969 47.0502 21.5087L60.9985 8.26787V12.4941C60.9985 13.1845 61.588 13.7441 62.3153 13.7441C63.0425 13.7441 63.6321 13.1845 63.6321 12.4941V5.375C63.6321 5.35462 63.6298 5.33475 63.6289 5.3145Z" fill="#D4C17F"/>
</g>
<defs>
<filter id="filter0_d" x="0" y="0" width="71.8369" height="72" filterUnits="userSpaceOnUse" color-interpolation-filters="sRGB">
<feFlood flood-opacity="0" result="BackgroundImageFix"/>
<feColorMatrix in="SourceAlpha" type="matrix" values="0 0 0 0 0 0 0 0 0 0 0 0 0 0 0 0 0 0 127 0"/>
<feOffset/>
<feGaussianBlur stdDeviation="2"/>
<feColorMatrix type="matrix" values="0 0 0 0 0.831373 0 0 0 0 0.756863 0 0 0 0 0.498039 0 0 0 1 0"/>
<feBlend mode="normal" in2="BackgroundImageFix" result="effect1_dropShadow"/>
<feBlend mode="normal" in="SourceGraphic" in2="effect1_dropShadow" result="shape"/>
</filter>
</defs>
</svg>
