<svg width="74" height="60" viewBox="0 0 74 60" fill="none" xmlns="http://www.w3.org/2000/svg">
<g filter="url(#filter0_d)">
<path d="M64.7017 11.8005H67.716C68.5683 11.804 69.3435 11.2113 69.6986 10.2848C70.0561 9.39454 69.9457 8.33647 69.4161 7.57952C67.8279 5.25868 65.4366 3.93996 62.9305 4.00245C60.4244 4.06553 58.0814 5.50266 56.5757 7.90027H52.4152C52.0224 6.0317 50.7922 4.58028 49.2249 4.13813C47.6575 3.69538 46.0151 4.3351 44.9654 5.79723C44.1509 4.65704 42.9605 4.00007 41.707 4.00007C40.4534 4.00007 39.2625 4.65704 38.448 5.79723C37.6335 4.65704 36.4426 4.00007 35.1895 4.00007C33.936 4.00007 32.7451 4.65704 31.9306 5.79723C30.8814 4.3351 29.2385 3.69538 27.6716 4.13813C26.1043 4.58028 24.8736 6.0317 24.4808 7.90027H18.1483C16.6422 5.50207 14.2991 4.06493 11.793 4.00245C9.28687 3.93996 6.8956 5.25927 5.30739 7.58071C4.77832 8.33766 4.66793 9.39513 5.02496 10.2848C5.38049 11.2113 6.1557 11.804 7.00748 11.8005H10.0218C11.2067 11.7618 12.2241 12.8014 12.3778 14.2082C12.423 14.9622 12.1923 15.7025 11.7458 16.2374C11.3385 16.729 10.7836 17.0039 10.2053 17.0003H7.07461C6.22233 16.9914 5.44612 17.5889 5.10004 18.5214C4.73854 19.4664 4.88075 20.5786 5.46154 21.3516C7.06815 23.5618 9.41864 24.793 11.8656 24.7055C14.3121 24.6181 16.5969 23.2214 18.0907 20.9006H19.8982L18.4308 25.2905C17.9639 26.7092 18.0355 28.3011 18.6272 29.6519L25.1839 42.2826C25.3341 42.6433 25.4126 43.0414 25.4131 43.4448V53.4001C25.4131 54.836 26.3857 56 27.5856 56H42.793C43.9928 56 44.9654 54.836 44.9654 53.4001V46.5827C44.9659 46.1817 45.0435 45.7853 45.1927 45.4259L49.2403 38.8972C51.1184 35.9682 52.2591 32.4577 52.5281 28.7795C52.5554 28.3207 52.5694 27.8619 52.5694 27.4001V20.9006H56.6329C58.1266 23.2208 60.4115 24.6175 62.8579 24.7043C65.3044 24.7918 67.6544 23.5612 69.261 21.3516C69.8423 20.5786 69.9845 19.467 69.6235 18.5214C69.2774 17.5889 68.5017 16.9914 67.6489 17.0003H64.5182C63.9419 17.0021 63.389 16.7272 62.9832 16.2374C62.5367 15.7025 62.306 14.9622 62.3512 14.2082C62.5049 12.8038 63.5188 11.7654 64.7017 11.8005ZM48.2244 6.6006C49.4243 6.6006 50.3969 7.76459 50.3969 9.20054V18.3006C50.3969 19.736 49.4243 20.9006 48.2244 20.9006C47.0245 20.9006 46.0519 19.736 46.0519 18.3006V9.20054C46.0519 7.76459 47.0245 6.6006 48.2244 6.6006ZM41.707 6.6006C42.9068 6.6006 43.8794 7.76459 43.8794 9.20054V18.3006C43.8794 19.736 42.9068 20.9006 41.707 20.9006C40.5071 20.9006 39.5345 19.736 39.5345 18.3006V9.20054C39.5345 7.76459 40.5071 6.6006 41.707 6.6006ZM35.1895 6.6006C36.3894 6.6006 37.362 7.76459 37.362 9.20054V13.3602C36.9985 13.1936 36.6136 13.1055 36.2243 13.1001H33.0171V9.20054C33.0171 7.76459 33.9897 6.6006 35.1895 6.6006ZM28.6716 6.6006C29.8715 6.6006 30.8441 7.76459 30.8441 9.20054V13.1001H26.4991V9.20054C26.4991 7.76459 27.4717 6.6006 28.6716 6.6006ZM11.6175 22.1092C9.88208 22.0973 8.2337 21.1951 7.09102 19.6312L6.27752 20.4923L7.07461 19.6003H10.2053C11.4131 19.6003 12.5662 18.9992 13.3887 17.9406C14.2106 16.8825 14.6278 15.462 14.5398 14.0207C14.3141 11.25 12.3474 9.15174 10.0218 9.20054L6.98014 9.24457C8.12082 7.5819 9.82042 6.6125 11.6175 6.6006C15.1126 6.70057 17.8813 10.1652 17.8092 14.3486C17.8843 18.5351 15.1156 22.0056 11.6175 22.1092ZM19.3462 18.3006C20.1831 15.7989 20.194 13.0103 19.3755 10.5002H24.3266V13.5036C22.8727 14.1279 21.7116 15.4692 21.1388 17.186L20.7673 18.3006H19.3462ZM50.3611 28.595C50.1204 31.7793 49.1264 34.8155 47.4954 37.3476L43.3961 43.9596C43.3653 44.0102 43.3374 44.0631 43.3126 44.1179C42.971 44.8772 42.7925 45.7258 42.793 46.5881V53.4001H27.5856V43.4448C27.5816 42.598 27.4076 41.7649 27.0784 41.0151L20.5247 28.3856C20.2472 27.7214 20.2204 26.9472 20.4511 26.2575L23.1601 18.1518C23.6514 16.6683 24.8517 15.6953 26.1854 15.7001H36.2243C36.5495 15.7001 36.8578 15.8715 37.0676 16.1684C37.268 16.4487 37.3545 16.8212 37.3033 17.1848C36.8319 20.5102 35.0244 22.2002 31.9306 22.2002H28.6716C28.1465 22.1996 27.6965 22.6489 27.602 23.2672C27.508 23.8855 27.7969 24.4961 28.2882 24.7168C28.3688 24.7537 42.793 37.2095 42.793 45.2825C42.793 46.0002 43.2793 46.5827 43.8794 46.5827C44.4791 46.5827 44.9654 46.0002 44.9654 45.2825C44.9654 39.5625 35.4372 26.9841 32.8221 24.7615C34.9697 24.7228 36.9737 23.466 38.2222 21.3748C38.9945 22.6501 40.2122 23.4321 41.5275 23.4963C42.8422 23.5606 44.1092 22.9 44.9654 21.7039C46.3135 23.6022 48.6108 24.0563 50.3969 22.7775V27.4001C50.3969 27.7994 50.3849 28.1987 50.3611 28.595ZM52.5694 18.3006V10.5002H55.348C54.53 13.0103 54.5404 15.7989 55.3773 18.3006H52.5694ZM61.4472 18.0757C62.2597 19.054 63.3656 19.6033 64.5182 19.6003L67.6325 19.6312C66.4898 21.1951 64.8419 22.0973 63.106 22.1092C59.6079 22.0056 56.8392 18.5351 56.9143 14.3486C56.8422 10.1652 59.6109 6.70057 63.106 6.6006C64.8902 6.60834 66.5798 7.55988 67.7215 9.20054H64.7017C62.3761 9.15174 60.4095 11.25 60.1842 14.0207C60.0937 15.5275 60.5547 17.0069 61.4472 18.0757Z" fill="#D4C17F"/>
</g>
<defs>
<filter id="filter0_d" x="0.817627" y="0" width="73.0886" height="60" filterUnits="userSpaceOnUse" color-interpolation-filters="sRGB">
<feFlood flood-opacity="0" result="BackgroundImageFix"/>
<feColorMatrix in="SourceAlpha" type="matrix" values="0 0 0 0 0 0 0 0 0 0 0 0 0 0 0 0 0 0 127 0"/>
<feOffset/>
<feGaussianBlur stdDeviation="2"/>
<feColorMatrix type="matrix" values="0 0 0 0 0.831373 0 0 0 0 0.756863 0 0 0 0 0.498039 0 0 0 1 0"/>
<feBlend mode="normal" in2="BackgroundImageFix" result="effect1_dropShadow"/>
<feBlend mode="normal" in="SourceGraphic" in2="effect1_dropShadow" result="shape"/>
</filter>
</defs>
</svg>
