<svg width="73" height="72" viewBox="0 0 73 72" fill="none" xmlns="http://www.w3.org/2000/svg">
<g filter="url(#filter0_d)">
<path d="M68.6575 30.8387H66.3438L62.8955 32.6578C62.5073 32.443 62.1036 32.2611 61.6683 32.1517L57.3306 31.0635V30.5691C59.2495 29.2263 60.4204 27.0081 60.4204 24.6452V22.8407C60.4204 18.8306 57.2863 15.4748 53.4343 15.3579C53.2387 15.3528 53.0461 15.3599 52.8526 15.3695L53.9772 12.7298L48.5249 7.26512L45.3109 9.3624C44.0897 8.67288 42.7981 8.13609 41.4568 7.75958L40.663 4H32.8161L32.0222 7.76058C30.6809 8.1371 29.3883 8.67389 28.1682 9.36341L24.9541 7.26613L19.5063 12.7278L20.6119 15.3695C20.5696 15.3674 20.5294 15.3599 20.4872 15.3589C18.5154 15.3014 16.6583 16.0227 15.2475 17.3957C13.8348 18.7676 13.0576 20.6089 13.0576 22.5806V24.6452C13.0576 27.0081 14.2275 29.2253 16.1465 30.568V31.0635L13.317 31.7727L8.18846 28.7742H4.82056V50.1638L14.9499 53.5484H16.9227L17.169 52.6835L20.274 54.5519C20.3248 56.2445 21.6787 57.6063 23.3654 57.6658C23.4247 59.3498 24.7746 60.7031 26.4543 60.7626C26.5136 62.4466 27.8635 63.7999 29.5432 63.8594C29.6045 65.5827 31.0122 66.9677 32.7452 66.9677C33.3887 66.9677 34.0196 66.7666 34.55 66.4083L35.462 67.2157C36.0337 67.7203 36.7697 68 37.5339 68H37.7244C39.4378 68 40.8319 66.6114 40.8535 64.8992C42.5483 64.8775 43.9208 63.5015 43.9424 61.8024C45.6381 61.7807 47.0117 60.4027 47.0313 58.7026C48.7426 58.6623 50.1242 57.2606 50.1242 55.5353C50.1242 55.4314 50.1191 55.3291 50.1086 55.2258L68.6575 45.9284V30.8387ZM58.3612 22.8407V24.6452C58.3612 26.4773 57.3738 28.189 55.7841 29.1119L55.2693 29.4103L55.2733 32.6769L60.4174 33.9652L49.0945 39.94V37.1593C49.0945 35.7717 48.5355 34.501 47.62 33.562L51.1538 32.6769V29.4078L50.64 29.1099C49.0513 28.189 48.0649 26.4773 48.0649 24.6452V22.5806C48.0649 21.1729 48.6199 19.8564 49.629 18.876C50.637 17.8962 51.9743 17.3679 53.3724 17.4224C56.123 17.505 58.3612 19.936 58.3612 22.8407ZM38.2915 39.1285L33.6305 37.6351C31.5064 36.9526 29.2073 36.8508 27.033 37.3337L26.4427 37.4647V37.1593C26.4427 35.7359 27.4055 34.5 28.782 34.1542L34.6798 32.6769V29.4078L34.1659 29.1099C32.5773 28.189 31.5909 26.4773 31.5909 24.6452V22.5806C31.5909 21.1729 32.1459 19.8564 33.1549 18.876C34.1629 17.8962 35.5088 17.3679 36.8984 17.4224C39.6489 17.505 41.8871 19.936 41.8871 22.8407V24.6452C41.8871 26.4773 40.8997 28.189 39.3101 29.1119L38.7952 29.4103L38.7993 32.6769L44.696 34.1542C46.0725 34.5 47.0353 35.7359 47.0353 37.1593V41.0272L46.7809 41.1613H46.1499L39.8198 39.3478C39.3211 39.2062 38.8073 39.1482 38.2915 39.1285ZM26.6735 19.4496C28.6071 15.6935 32.4988 13.2903 36.739 13.2903C40.939 13.2903 44.8141 15.6613 46.7623 19.3664C46.2721 20.3518 46.0057 21.443 46.0057 22.5806V24.6452C46.0057 27.0081 47.1756 29.2253 49.0945 30.568V31.0635L44.976 32.0973L40.8565 31.0635V30.5691C42.7755 29.2263 43.9464 27.0081 43.9464 24.6452V22.8407C43.9464 18.8306 40.8123 15.4748 36.9602 15.3579C34.9894 15.2999 33.1313 16.0217 31.7206 17.3947C30.3089 18.7676 29.5316 20.6089 29.5316 22.5806V24.6452C29.5316 27.0081 30.7015 29.2253 32.6205 30.568V31.0635L28.502 32.0973L24.3825 31.0635V30.5691C26.3015 29.2263 27.4724 27.0081 27.4724 24.6452V22.8407C27.4724 21.626 27.1808 20.4728 26.6735 19.4496ZM21.9381 13.2067L25.2276 9.90877L28.1229 11.7979L28.6769 11.4572C30.065 10.6043 31.5652 9.97984 33.1353 9.60333L33.7688 9.45111L34.4852 6.06452H38.9938L39.7082 9.4501L40.3417 9.60181C41.9118 9.97883 43.412 10.6033 44.8001 11.4561L45.3541 11.7969L48.2494 9.90776L51.5349 13.2026L50.367 15.9441C49.5721 16.2868 48.8351 16.7692 48.1936 17.3926C48.1514 17.434 48.1152 17.4783 48.074 17.5207C45.6482 13.6547 41.3598 11.2258 36.739 11.2258C32.0851 11.2258 27.7846 13.6774 25.3648 17.5827C24.7173 16.9032 23.9471 16.3528 23.0934 15.9682L21.9381 13.2067ZM18.2057 32.6769V29.4078L17.6919 29.1099C16.1032 28.189 15.1168 26.4773 15.1168 24.6452V22.5806C15.1168 21.1729 15.6719 19.8564 16.6809 18.876C17.6889 17.8962 19.0292 17.3679 20.4243 17.4224C23.1749 17.505 25.4131 19.936 25.4131 22.8407V24.6452C25.4131 26.4773 24.4257 28.189 22.836 29.1119L22.3212 29.4103L22.3252 32.6769L25.858 33.562C24.9425 34.501 24.3835 35.7717 24.3835 37.1593V37.9239L21.1719 38.6396L21.2554 38.3473L21.2946 36.4395L15.8644 33.2636L18.2057 32.6769ZM6.87981 30.8387C6.87981 30.8387 6.87981 30.8387 7.63041 30.8387L6.56123 40.5L6.87981 48.6749V30.8387ZM15.2837 51.4839L6.87981 48.6749L6.56123 40.5L7.63041 30.8387L19.2353 37.625V37.9199L15.3702 51.4839H15.2837ZM22.3242 54.4556C22.3242 54.1512 22.4469 53.8528 22.6621 53.6371L24.472 51.8226C24.6871 51.6069 24.9848 51.4839 25.2884 51.4839C25.9249 51.4839 26.4427 52.003 26.4427 52.6411C26.4427 52.9456 26.3201 53.2439 26.1049 53.4597L24.295 55.2742C24.0798 55.4899 23.7822 55.6129 23.4785 55.6129C22.8421 55.6129 22.3242 55.0937 22.3242 54.4556ZM25.4131 57.5524C25.4131 57.248 25.5358 56.9496 25.751 56.7339L27.5608 54.9194C27.776 54.7036 28.0736 54.5806 28.3773 54.5806C29.0138 54.5806 29.5316 55.0998 29.5316 55.7379C29.5316 56.0423 29.4089 56.3407 29.1938 56.5564L27.3839 58.371C27.1687 58.5867 26.8711 58.7097 26.5674 58.7097C25.9309 58.7097 25.4131 58.1905 25.4131 57.5524ZM28.502 60.6492C28.502 60.3448 28.6247 60.0464 28.8398 59.8306L30.6497 58.0161C30.8649 57.8004 31.1625 57.6774 31.4662 57.6774C32.1027 57.6774 32.6205 58.1966 32.6205 58.8347C32.6205 59.1391 32.4978 59.4375 32.2827 59.6532L30.4728 61.4677C30.2576 61.6835 29.96 61.8064 29.6563 61.8064C29.0198 61.8064 28.502 61.2873 28.502 60.6492ZM32.7452 64.9032C32.1087 64.9032 31.5909 64.3841 31.5909 63.746C31.5909 63.4415 31.7135 63.1431 31.9287 62.9274L33.7386 61.1129C33.9538 60.8972 34.2514 60.7742 34.5551 60.7742C35.1916 60.7742 35.7094 61.2933 35.7094 61.9314C35.7094 62.2359 35.5867 62.5343 35.3715 62.75L33.5616 64.5645C33.3465 64.7802 33.0488 64.9032 32.7452 64.9032ZM37.7244 65.9355H37.5339C37.2714 65.9355 37.02 65.8397 36.8245 65.6658L36.0543 64.9849L36.8275 64.2097C37.1035 63.933 37.3177 63.6038 37.476 63.2505L38.4122 64.0318C38.657 64.2364 38.7983 64.5378 38.7983 64.8589C38.7983 65.4526 38.3166 65.9355 37.7244 65.9355ZM46.9579 56.6452H46.7799C46.5215 56.6452 46.2691 56.5534 46.0715 56.3871L40.488 51.7223L39.1688 53.309L44.5909 57.8382C44.8348 58.0428 44.976 58.3443 44.976 58.6653C44.976 59.2591 44.4944 59.7419 43.9022 59.7419H43.6774C43.4276 59.7419 43.1832 59.6532 42.9907 59.4919L37.3981 54.8201L36.0789 56.4068L41.501 60.9365C41.7459 61.1396 41.8871 61.441 41.8871 61.7621C41.8871 62.3558 41.4055 62.8387 40.8133 62.8387C40.4181 62.8387 40.033 62.6981 39.7299 62.4456L37.4318 60.5252C36.9255 59.4879 35.8853 58.7646 34.6672 58.7213C34.6079 57.0373 33.258 55.684 31.5783 55.6245C31.519 53.9405 30.1691 52.5872 28.4894 52.5277C28.4291 50.8044 27.0214 49.4194 25.2884 49.4194C24.4423 49.4194 23.6143 49.7631 23.016 50.3629L21.2061 52.1774C21.098 52.2858 21.0085 52.4088 20.9175 52.5307L17.7547 50.628L20.5274 40.8992L27.4784 39.3498C29.3019 38.941 31.2244 39.0297 33.0026 39.6003L34.5194 40.0867L29.3773 42.6643C28.2024 43.2545 27.4724 44.4395 27.4724 45.7571V45.9612C27.4724 47.8679 29.0198 49.4194 30.9217 49.4194C31.5466 49.4194 32.1615 49.249 32.6959 48.9259L36.5299 46.621C37.3001 46.1583 38.3337 46.2596 38.9989 46.8594L47.6984 54.7087C47.9312 54.9204 48.0649 55.2208 48.0649 55.5353C48.0649 56.1477 47.5687 56.6452 46.9579 56.6452ZM66.5982 44.6522L49.2519 53.3483C49.1956 53.2883 49.1368 53.2313 49.0749 53.1759L40.3769 45.3266C39.6147 44.6371 38.6293 44.2581 37.6027 44.2581C36.8521 44.2581 36.1151 44.4627 35.4696 44.8508L31.6341 47.1568C31.4189 47.2868 31.1731 47.3548 30.9217 47.3548C30.1545 47.3548 29.5316 46.7303 29.5316 45.9612V45.7571C29.5316 45.2253 29.8262 44.7485 30.2998 44.5111L36.0432 41.6321C37.0261 41.1386 38.193 41.0282 39.2522 41.3337L45.7226 43.1865L47.2897 43.2258L66.5982 33.0373V44.6522Z" fill="#D4C17F"/>
</g>
<defs>
<filter id="filter0_d" x="0.820557" y="0" width="71.8369" height="72" filterUnits="userSpaceOnUse" color-interpolation-filters="sRGB">
<feFlood flood-opacity="0" result="BackgroundImageFix"/>
<feColorMatrix in="SourceAlpha" type="matrix" values="0 0 0 0 0 0 0 0 0 0 0 0 0 0 0 0 0 0 127 0"/>
<feOffset/>
<feGaussianBlur stdDeviation="2"/>
<feColorMatrix type="matrix" values="0 0 0 0 0.831373 0 0 0 0 0.756863 0 0 0 0 0.498039 0 0 0 1 0"/>
<feBlend mode="normal" in2="BackgroundImageFix" result="effect1_dropShadow"/>
<feBlend mode="normal" in="SourceGraphic" in2="effect1_dropShadow" result="shape"/>
</filter>
</defs>
</svg>
