<svg width="48" height="48" viewBox="0 0 48 48" fill="none" xmlns="http://www.w3.org/2000/svg">
<path d="M40 0H8C3.589 0 0 3.589 0 8V40C0 44.411 3.589 48 8 48H40C44.411 48 48 44.411 48 40V32C48 30.896 47.104 30 46 30C44.896 30 45 30.896 45 32V40C45 42.206 42.206 45 40 45H8C5.794 45 3 42.206 3 40V8C3 5.794 5.794 3 8 3H40C42.206 3 45 5.794 45 8V16C45 17.104 44.896 18 46 18C47.104 18 48 17.104 48 16V8C48 3.589 44.411 0 40 0Z" fill="#D4C17F"/>
<path d="M40.0004 24C40.0004 22.896 39.1044 22.586 38.0004 22.586H13.4997L18.4997 17C19.2807 16.219 20.1954 15.367 19.4144 14.586C18.6334 13.805 17.3674 13.805 16.5864 14.586L9.50013 22.586C8.71913 23.367 8.71842 24.219 9.49942 25L16.5864 33.414C16.9774 33.805 17.4884 34 18.0004 34C18.5124 34 19.0234 33.805 19.4144 33.414C20.1954 32.633 19.7807 31.781 18.9997 31L13.4997 25L38.0004 25.414C39.1044 25.414 40.0004 25.104 40.0004 24Z" fill="#D4C17F"/>
</svg>
