<svg width="48" height="48" viewBox="0 0 48 48" fill="none" xmlns="http://www.w3.org/2000/svg">
<path d="M38.8125 0H9.1875C4.12144 0 0 4.12144 0 9.1875V38.8125C0 43.8786 4.12144 48 9.1875 48H28C28.5178 48 30.9375 46.125 24.9375 46.125V39.7969C24.9375 39.2791 24.5178 38.8594 24 38.8594C23.4822 38.8594 23.0625 39.2791 23.0625 39.7969V46.125H9.1875C5.15541 46.125 1.875 42.8446 1.875 38.8125V9.1875C1.875 5.15541 5.15541 1.875 9.1875 1.875H38.8125C42.8446 1.875 46.125 5.15541 46.125 9.1875V38.8125C46.125 42.8446 42.8446 46.125 38.8125 46.125H32.8125V29.5782H38.2482C38.7297 29.5782 39.1328 29.2135 39.181 28.7346L39.8552 22.0357C39.8817 21.7719 39.7955 21.5094 39.6177 21.3129C39.44 21.1164 39.1873 21.0043 38.9224 21.0043H32.8125V17.4867C32.8125 16.8501 33.0153 16.6133 33.5607 16.6133H38.8803C39.3981 16.6133 39.8178 16.1936 39.8178 15.6758V9.14522C39.8178 8.62744 39.3981 8.20772 38.8803 8.20772H31.8943C27.9359 8.20772 25.8367 9.94641 24.7727 11.405C23.2846 13.4448 23.0624 15.8538 23.0624 17.1082V21.0463H18.4687C17.9509 21.0463 17.5312 21.466 17.5312 21.9838V28.6406C17.5312 29.1584 17.9509 29.5781 18.4687 29.5781H23.0624L23.0625 39.7969C23.0625 40.3147 23.4822 38.8594 24 38.8594C24.5178 38.8594 24.9375 40.3147 24.9375 39.7969L24.9374 28.6406C24.9374 28.1228 24.5177 27.7031 23.9999 27.7031H19.4062V22.9212H23.9999C24.5177 22.9212 24.9374 22.5015 24.9374 21.9837V17.1081C24.9374 14.9957 25.6153 10.0826 31.8943 10.0826H37.9428V14.7382H33.5607C32.3506 14.7382 30.9375 15.4581 30.9375 17.4866V21.9417C30.9375 22.4595 31.3572 22.8792 31.875 22.8792H37.8858L37.4003 27.7031H31.875C31.3572 27.7031 30.9375 28.1228 30.9375 28.6406V46.125C24.9375 46.125 27.4822 48 28 48H38.8125C43.8786 48 48 43.8786 48 38.8125V9.1875C48 4.12144 43.8786 0 38.8125 0Z" fill="#D4C17F"/>
<path d="M5.4375 9.60938C4.91972 9.60938 4.5 10.0291 4.5 10.5469V18.375C4.5 18.8928 4.91972 19.3125 5.4375 19.3125C5.95528 19.3125 6.375 18.8928 6.375 18.375V10.5469C6.375 10.0291 5.95528 9.60938 5.4375 9.60938Z" fill="#D4C17F"/>
<path d="M5.4375 21.5045C4.91972 21.5045 4.5 21.9243 4.5 22.442V22.4531C4.5 22.9709 4.91972 23.3906 5.4375 23.3906C5.95528 23.3906 6.375 22.9709 6.375 22.4531V22.442C6.375 21.9243 5.95528 21.5045 5.4375 21.5045Z" fill="#D4C17F"/>
</svg>
