<svg width="280" height="228" viewBox="0 0 280 228" fill="none" xmlns="http://www.w3.org/2000/svg">
<path d="M58.7848 137.561C77.3723 146.481 98.0013 148.344 116.924 144.237C130.148 141.368 144.287 143.245 155.485 150.166C158.121 151.797 161.061 153.157 164.261 154.204C180.487 159.48 199.013 153.959 208.475 141.069C210.41 138.431 211.887 135.657 212.908 132.829C216.092 124.031 223.253 116.729 232.775 113.044C243.593 108.87 252.78 101.187 258.006 90.6763C267.954 70.6743 259.407 46.729 238.321 35.5654C228.601 30.4119 217.799 28.6306 207.53 29.732C185.956 32.0572 164.261 26.2646 146.862 14.6387C143.175 12.1776 139.214 9.96113 134.978 8.03028C94.6799 -10.3536 45.3013 3.89662 24.7028 39.8622C4.24136 75.515 19.2637 118.579 58.7848 137.561Z" fill="#F4D155"/>
<path d="M270.981 94.0272C270.981 94.0272 245.751 111.976 243.557 174.946" stroke="#4AAE5F" stroke-width="0.75" stroke-miterlimit="10"/>
<path d="M211.775 127.409C218.082 131.108 225.304 131.271 225.304 131.271C225.304 131.271 222.272 125.424 215.965 121.725C209.657 118.027 202.436 117.864 202.436 117.864C202.436 117.864 205.452 123.711 211.775 127.409Z" fill="#4AAE5F"/>
<path d="M273.845 96.3932C268.863 101.465 261.961 103.342 261.961 103.342C261.961 103.342 263.134 96.9915 268.116 91.9196C273.098 86.8477 280 84.9712 280 84.9712C280 84.9712 278.827 91.3213 273.845 96.3932Z" fill="#4AAE5F"/>
<path d="M269 111.283C262.723 115.049 255.516 115.267 255.516 115.267C255.516 115.267 258.472 109.393 264.749 105.64C271.026 101.873 278.233 101.656 278.233 101.656C278.233 101.656 275.262 107.516 269 111.283Z" fill="#4AAE5F"/>
<path d="M264.094 123.412C257.817 127.178 250.61 127.396 250.61 127.396C250.61 127.396 253.566 121.521 259.843 117.769C266.12 114.002 273.327 113.784 273.327 113.784C273.327 113.784 270.356 119.659 264.094 123.412Z" fill="#4AAE5F"/>
<path d="M260.803 135.35C254.526 139.117 247.32 139.334 247.32 139.334C247.32 139.334 250.275 133.46 256.552 129.707C262.83 125.941 270.036 125.723 270.036 125.723C270.036 125.723 267.065 131.597 260.803 135.35Z" fill="#4AAE5F"/>
<path d="M248.63 126.702C250.032 132.889 247.67 138.546 247.67 138.546C247.67 138.546 243.039 134.154 241.637 127.967C240.235 121.78 242.597 116.123 242.597 116.123C242.597 116.123 247.228 120.502 248.63 126.702Z" fill="#4AAE5F"/>
<path d="M243.739 140.164C246.04 144.909 245.232 149.777 245.232 149.777C245.232 149.777 240.692 146.976 238.392 142.231C236.091 137.485 236.899 132.617 236.899 132.617C236.899 132.617 241.439 135.432 243.739 140.164Z" fill="#4AAE5F"/>
<path d="M253.094 148.227C250.062 152.633 245.126 154.836 245.126 154.836C245.126 154.836 245.095 149.9 248.127 145.508C251.159 141.102 256.095 138.899 256.095 138.899C256.095 138.899 256.126 143.835 253.094 148.227Z" fill="#4AAE5F"/>
<path d="M251.525 160.397C248.493 164.803 243.557 167.005 243.557 167.005C243.557 167.005 243.526 162.069 246.558 157.677C249.59 153.272 254.526 151.069 254.526 151.069C254.526 151.069 254.557 155.991 251.525 160.397Z" fill="#4AAE5F"/>
<path d="M243.389 153.68C245.354 158.534 244.196 163.361 244.196 163.361C244.196 163.361 239.869 160.302 237.904 155.447C235.939 150.593 237.097 145.766 237.097 145.766C237.097 145.766 241.439 148.812 243.389 153.68Z" fill="#4AAE5F"/>
<path d="M255.501 111.446C255.76 118.19 252.165 123.765 252.165 123.765C252.165 123.765 248.158 118.421 247.899 111.677C247.64 104.933 251.235 99.3575 251.235 99.3575C251.235 99.3575 255.242 104.701 255.501 111.446Z" fill="#4AAE5F"/>
<path d="M261.931 97.1139C262.174 103.328 258.853 108.481 258.853 108.481C258.853 108.481 255.151 103.546 254.922 97.3315C254.694 91.1174 258 85.9639 258 85.9639C258 85.9639 261.687 90.8862 261.931 97.1139Z" fill="#4AAE5F"/>
<path d="M201.095 86.1814C201.095 86.1814 226.538 103.899 229.464 166.842V174.946" stroke="#4AAE5F" stroke-width="0.75" stroke-miterlimit="10"/>
<path d="M203.289 103.41C209.596 107.108 216.818 107.271 216.818 107.271C216.818 107.271 213.786 101.424 207.479 97.7258C201.171 94.0273 193.949 93.8641 193.949 93.8641C193.949 93.8641 196.981 99.7111 203.289 103.41Z" fill="#4AAE5F"/>
<path d="M208.332 115.498C214.639 119.196 221.861 119.36 221.861 119.36C221.861 119.36 218.829 113.513 212.522 109.814C206.214 106.116 198.992 105.952 198.992 105.952C198.992 105.952 202.024 111.799 208.332 115.498Z" fill="#4AAE5F"/>
<path d="M223.842 118.639C222.516 124.839 224.939 130.469 224.939 130.469C224.939 130.469 229.524 126.036 230.85 119.835C232.175 113.635 229.753 108.005 229.753 108.005C229.753 108.005 225.167 112.438 223.842 118.639Z" fill="#4AAE5F"/>
<path d="M228.885 132.073C226.63 136.832 227.498 141.7 227.498 141.7C227.498 141.7 232.008 138.858 234.263 134.086C236.518 129.327 235.649 124.459 235.649 124.459C235.649 124.459 231.124 127.301 228.885 132.073Z" fill="#4AAE5F"/>
<path d="M219.621 140.218C222.699 144.597 227.666 146.759 227.666 146.759C227.666 146.759 227.635 141.823 224.558 137.458C221.48 133.079 216.513 130.917 216.513 130.917C216.513 130.917 216.544 135.84 219.621 140.218Z" fill="#4AAE5F"/>
<path d="M221.343 152.361C224.421 156.739 229.387 158.901 229.387 158.901C229.387 158.901 229.357 153.965 226.279 149.601C223.202 145.222 218.235 143.06 218.235 143.06C218.235 143.06 218.265 147.996 221.343 152.361Z" fill="#4AAE5F"/>
<path d="M229.387 145.562C227.483 150.444 228.686 155.257 228.686 155.257C228.686 155.257 232.983 152.157 234.887 147.275C236.792 142.394 235.588 137.58 235.588 137.58C235.588 137.58 231.292 140.694 229.387 145.562Z" fill="#4AAE5F"/>
<path d="M216.787 103.45C216.605 110.195 220.276 115.743 220.276 115.743C220.276 115.743 224.222 110.358 224.405 103.614C224.588 96.8692 220.916 91.3214 220.916 91.3214C220.916 91.3214 216.97 96.7061 216.787 103.45Z" fill="#4AAE5F"/>
<path d="M210.19 89.1729C210.023 95.387 213.405 100.5 213.405 100.5C213.405 100.5 217.046 95.5365 217.214 89.3088C217.382 83.0947 213.999 77.9821 213.999 77.9821C213.999 77.9821 210.358 82.9588 210.19 89.1729Z" fill="#4AAE5F"/>
<path d="M249.072 59.8293C245.644 78.8796 242.901 98.0249 240.799 117.225C239.732 126.825 238.94 136.438 238.331 146.065C237.691 155.692 237.523 165.319 237.569 174.96H235.984C236.076 165.306 236.365 155.638 237.142 146.011C237.889 136.384 238.818 126.757 240.007 117.17C242.383 97.957 245.385 78.8388 249.072 59.8293Z" fill="#4AAE5F"/>
<path d="M240.113 223.449H231.597C227.696 223.449 224.466 220.77 224.177 217.303L220.596 174.96H251.129L247.548 217.303C247.244 220.77 244.014 223.449 240.113 223.449Z" fill="#39B4E9"/>
<path d="M244.745 174.946L241.164 217.289C240.875 220.757 237.63 223.435 233.745 223.435H240.128C244.029 223.435 247.259 220.757 247.548 217.289L251.129 174.946H244.745Z" fill="#2CA9D4"/>
<path d="M247.853 226.984H224.085C222.135 226.984 220.551 225.57 220.551 223.83V220.471H251.388V223.83C251.388 225.57 249.803 226.984 247.853 226.984Z" fill="#70A0B3"/>
<path d="M198.261 88.5746C203.304 93.6057 210.221 95.4142 210.221 95.4142C210.221 95.4142 208.972 89.0777 203.929 84.0466C198.886 79.0155 191.969 77.207 191.969 77.207C191.969 77.207 193.233 83.5571 198.261 88.5746Z" fill="#4AAE5F"/>
<path d="M185.428 225.129H211.785V169.597H185.428V225.129Z" fill="#5D8695"/>
<path d="M185.423 169.61H133.363V225.143H185.423V169.61Z" fill="#70A0B3"/>
<path d="M190.007 178.745H207.878V173.795H190.007V178.745Z" fill="#537885"/>
<path d="M192.843 184.268C192.843 184.962 192.203 185.533 191.426 185.533C190.649 185.533 190.009 184.962 190.009 184.268C190.009 183.575 190.649 183.004 191.426 183.004C192.218 183.004 192.843 183.561 192.843 184.268Z" fill="#537885"/>
<path d="M191.837 188.892C191.837 188.443 191.426 188.076 190.923 188.076C190.42 188.076 190.009 188.443 190.009 188.892C190.009 189.34 190.42 189.708 190.923 189.708C191.426 189.708 191.837 189.34 191.837 188.892Z" fill="#537885"/>
<path d="M162.692 211.45H180.106V211.151C180.106 209.954 179.024 208.989 177.683 208.989H165.114C163.773 208.989 162.692 209.954 162.692 211.151V211.45Z" fill="#5D8695"/>
<path d="M162.692 215.325H180.106V215.026C180.106 213.83 179.024 212.864 177.683 212.864H165.114C163.773 212.864 162.692 213.83 162.692 215.026V215.325Z" fill="#5D8695"/>
<path d="M162.692 219.187H180.106V218.888C180.106 217.691 179.024 216.726 177.683 216.726H165.114C163.773 216.726 162.692 217.691 162.692 218.888V219.187Z" fill="#5D8695"/>
<path d="M203.749 227.161H208.183V225.134H203.749V227.161Z" fill="#70A0B3"/>
<path d="M189.884 227.161H194.318V225.134H189.884V227.161Z" fill="#70A0B3"/>
<path d="M177.749 227.161H182.182V225.134H177.749V227.161Z" fill="#70A0B3"/>
<path d="M137.899 227.161H142.333V225.134H137.899V227.161Z" fill="#70A0B3"/>
<path d="M208.048 208.418H190.923V219.704H208.048V208.418Z" fill="#537885"/>
<path d="M208.048 202.843H190.923V206.215H208.048V202.843Z" fill="#537885"/>
<path d="M208.048 192.74H198.602V199.62H208.048V192.74Z" fill="#537885"/>
<path d="M8.29401 134.474V149.064C8.29401 153.878 12.6666 157.78 18.06 157.78H24.0629" stroke="#6E767E" stroke-width="2" stroke-miterlimit="10"/>
<path d="M8.81206 143.313H8.76634C5.78016 143.449 3.23582 141.409 3.06823 138.744L1.3009 109.074C1.14854 106.409 3.43389 104.138 6.42007 103.988H6.46577C9.45195 103.852 11.9963 105.892 12.1639 108.557L13.9312 138.227C14.0836 140.892 11.7982 143.163 8.81206 143.313Z" fill="#FF7F00"/>
<path d="M70.5315 164.185H21.8385C20.3454 164.185 19.1418 163.111 19.1418 161.778V160.99H73.213V161.778C73.2282 163.111 72.0246 164.185 70.5315 164.185Z" fill="#6E767E"/>
<path d="M48.2114 162.322H44.3263V223.389H48.2114V162.322Z" fill="#99A5AE"/>
<path d="M29.4868 226.938C29.4868 222.79 33.25 219.418 37.9121 219.418H54.976C59.6228 219.418 63.4013 222.777 63.4013 226.938" stroke="#6E767E" stroke-width="2" stroke-miterlimit="10"/>
<path d="M48.6227 175.403H43.3969L41.7971 161.792H50.2224L48.6227 175.403Z" fill="#6E767E"/>
<path d="M75.2393 161.792H17.2678V161.465C17.2678 157.413 20.9396 154.136 25.4798 154.136H67.0121C71.5523 154.136 75.2241 157.413 75.2241 161.465V161.792H75.2393Z" fill="#FF7F00"/>
<path d="M76.6257 206.568L77.7836 224.463C77.7074 225.537 80.3736 226.203 80.7393 225.415L83.177 206.568H76.6257Z" fill="#FF9C65"/>
<path d="M80.8612 224.49C83.1313 224.83 87.2907 225.619 87.5344 227.264C87.6563 228.134 84.2283 228.189 79.9928 227.658C78.7892 227.509 77.6617 227.114 77.4332 226.666C77.2047 226.217 77.7532 224.082 77.7532 224.082C78.2255 224.898 79.0787 225.455 80.8612 224.49Z" fill="#E9444E"/>
<path d="M96.0206 157.508C94.8018 170.467 87.8696 198.546 85.7061 214.659C82.598 214.251 79.3986 214.061 76.1838 213.993C75.0716 201.728 75.2545 156.57 75.2545 156.57L96.0206 157.508Z" fill="#14887E"/>
<path d="M50.2834 204.08L48.9579 204.964C47.3886 205.807 46.7183 207.534 47.3886 209.057C47.8609 210.145 48.4551 211.396 49.0493 212.511C49.5369 213.408 50.1006 214.414 50.6491 215.353C51.1671 216.264 52.2183 216.114 52.2336 215.094L52.2793 211.273L52.1117 208.309C52.0507 207.371 52.5078 206.46 53.3458 205.875C58.145 202.557 73.3501 192.509 73.3501 192.509L69.0537 187.382L50.2834 204.08Z" fill="#FFA979"/>
<path d="M51.4108 210.308C51.6698 210.688 51.944 211.001 52.2488 211.273L52.203 215.094C52.1878 216.114 51.1366 216.263 50.6185 215.352C50.0701 214.414 49.5063 213.408 49.0188 212.511C48.4246 211.409 47.8304 210.145 47.3581 209.057C46.6878 207.534 47.3581 205.807 48.9274 204.964L50.2529 204.08C49.3388 205.521 50.6795 209.22 51.4108 210.308Z" fill="#E9444E"/>
<path d="M113.359 162.675C113.145 139.764 49.2625 115.234 49.2625 115.234L44.052 116.879C41.2638 117.763 39.6641 118.551 37.8815 119.694L18.2733 128.491C19.157 140.049 25.7083 152.505 36.2818 153.973L92.1812 160.282C77.2046 175.444 62.5023 191.462 62.5023 191.462C64.9705 193.964 65.6713 194.97 67.9414 197.608C87.702 185.669 113.42 168.944 113.359 162.675Z" fill="#18A08E"/>
<path d="M60.2322 162.594V151.947C60.2322 149.336 57.8555 147.215 54.9302 147.215H31.376C28.4507 147.215 26.074 149.336 26.074 151.947V162.594" stroke="#6E767E" stroke-width="1.5" stroke-miterlimit="10"/>
<path d="M57.0784 147.011H29.2125V146.998C29.2125 145.298 30.7513 143.925 32.6557 143.925H53.6504C55.5396 143.938 57.0784 145.312 57.0784 147.011Z" fill="#FF7F00"/>
<path d="M113.359 115.655L111.439 119.435C111.439 119.435 66.4178 123.215 60.5064 114.703C60.5064 114.703 34.9868 79.9885 47.7999 68.2674C60.6131 56.5463 69.2669 106.844 69.2669 106.844C69.2669 106.844 84.8834 109.862 113.359 115.655Z" fill="#0096CF"/>
<path d="M34.1488 40.0661C34.1488 40.0661 28.3898 51.6513 12.7733 65.9015C-2.84324 80.1382 -3.54408 93.1783 7.42556 100.929C18.38 108.68 47.2362 111.63 54.2598 91.9409C61.2682 72.2652 54.9149 61.5911 56.926 54.6835C58.9219 47.7623 51.0146 30.3982 34.1488 40.0661Z" fill="#5B3B55"/>
<path d="M49.5977 63.0731C53.2085 64.1745 57.5355 68.2945 59.3028 79.5397C61.8776 95.952 63.8278 130.871 63.8278 130.871C49.034 139.342 40.6849 140.294 17.283 137.533C17.283 137.533 13.4131 111.113 17.283 90.1867C22.6916 60.8703 38.3843 59.6465 49.5977 63.0731Z" fill="#39B4E9"/>
<path d="M53.0715 54.3163C53.0715 54.3163 49.6587 57.7701 50.0396 66.3094C50.1006 67.6827 49.3388 69.0425 47.9676 69.6815C46.3526 70.4294 44.0673 70.2527 41.9343 65.6839C41.3858 64.5009 41.4467 63.1683 42.0866 62.0261C44.0215 58.5724 48.1352 50.2778 48.0438 42.5272L53.0715 54.3163Z" fill="#FF8F60"/>
<path d="M61.3139 41.8338C61.3139 41.8338 60.7197 52.1816 57.246 58.4908C56.0424 60.6665 53.7723 62.2166 51.7307 62.2574C49.8567 62.2981 46.4135 61.5367 44.311 59.1163C43.016 57.6342 41.5076 55.2546 40.624 52.3855C38.75 46.3074 40.8525 40.5828 47.4952 38.4208C54.4122 36.1772 62.5785 35.2934 61.3139 41.8338Z" fill="#FFA979"/>
<path d="M53.9399 48.6189C53.9399 48.6189 55.113 52.0727 55.1892 53.0517C55.2654 54.0443 54.1989 54.3979 53.5894 54.3571C53.041 54.3299 52.6448 53.8676 52.7515 53.378L53.9399 48.6189Z" fill="#FF6308"/>
<path d="M51.0298 46.3617C50.7099 46.3617 50.4052 46.4841 50.1462 46.5249C49.8719 46.5929 49.6282 46.6473 49.3844 46.7153C48.8816 46.8377 48.4398 47.0144 47.7237 47.2048C47.8151 46.5521 48.4093 46.049 49.0949 45.8586C49.4453 45.777 49.811 45.7498 50.1614 45.8178C50.4813 45.8994 50.8622 46.0354 51.0298 46.3617Z" fill="#3E454C"/>
<path d="M56.0576 47.0146C56.6366 46.593 57.3984 46.5386 58.0992 46.7426C58.4496 46.8514 58.7696 47.0554 58.9981 47.3273C59.2419 47.5857 59.3333 47.9392 59.318 48.2519C58.6781 47.912 58.2668 47.7352 57.764 47.5721C57.246 47.4089 56.7127 47.2865 56.0576 47.0146Z" fill="#3E454C"/>
<path d="M54.9455 55.8121C54.8693 56.9679 53.7571 57.8517 52.4773 57.7837C51.1823 57.7157 50.192 56.7231 50.2682 55.5809L54.9455 55.8121Z" fill="#FAF4EF"/>
<path d="M43.7321 49.1493C42.1476 49.938 41.5534 56.4376 41.5534 56.4376C39.9689 56.2337 31.8331 44.4853 34.1489 40.0661C36.7237 35.1302 39.2071 37.9313 44.2044 34.5183C46.7487 32.7779 50.0701 30.1943 54.6103 29.3648C61.1616 28.1547 64.6048 28.549 68.0938 34.8855C70.8514 39.903 67.8348 43.112 67.3016 43.6015C60.9178 49.5029 55.9663 45.342 51.3194 43.6695C49.0188 42.8401 45.8193 43.5063 44.7071 45.478C44.1587 46.4842 43.8844 49.0678 43.7321 49.1493Z" fill="#5B3B55"/>
<path d="M38.4757 49.802C38.948 51.7193 41.2486 53.1606 42.6046 52.9023C43.9606 52.6439 43.1378 50.985 42.6655 49.0678C42.1932 47.1505 41.4619 45.5868 40.0907 45.8587C38.7348 46.1035 38.0187 47.8848 38.4757 49.802Z" fill="#FFA979"/>
<path d="M50.9385 49.4484C50.9232 50.1011 50.5881 50.6178 50.1919 50.6042C49.7958 50.5906 49.4911 50.0603 49.5216 49.4077C49.5368 48.755 49.872 48.2383 50.2681 48.2518C50.649 48.2654 50.9537 48.7958 50.9385 49.4484Z" fill="#653018"/>
<path d="M57.6878 50.1419C57.6726 50.7946 57.3374 51.3113 56.9413 51.2977C56.5451 51.2841 56.2404 50.7538 56.2709 50.1011C56.2861 49.4484 56.6213 48.9317 57.0175 48.9453C57.4136 48.9589 57.7183 49.4892 57.6878 50.1419Z" fill="#653018"/>
<path d="M80.8916 115.995C83.7102 115.329 91.1757 117.464 91.6632 119.666L73.1672 119.966L80.8916 115.995Z" fill="#FFA979"/>
<path d="M216.839 126.941H55.7529V130.055H216.839V126.941Z" fill="#CA8146"/>
<path d="M38.8109 227.155L76.6257 125.473L65.7322 124.521L34.8953 227.155H38.8109Z" fill="#CA8146"/>
<path d="M235.381 227.155L204.544 124.521L193.65 125.473L231.465 227.155H235.381Z" fill="#CA8146"/>
<path d="M225.295 119.666H47.7847V127.634H225.295V119.666Z" fill="#97531C"/>
<path d="M127.238 119.653H100.789V119.435C100.789 116.893 103.105 114.826 105.954 114.826H122.058C124.907 114.826 127.223 116.893 127.223 119.435V119.653H127.238Z" fill="#9DC6D7"/>
<path d="M133.622 119.653H118.417L113.633 102.792H128.838L133.622 119.653Z" fill="#70A0B3"/>
<path d="M153.992 106.001H84.4263C82.2324 106.001 80.4651 104.41 80.4651 102.466L86.1327 61.6184C86.1327 59.6603 87.9153 58.083 90.094 58.083H159.66C161.854 58.083 163.621 59.6739 163.621 61.6184L157.953 102.466C157.953 104.41 156.171 106.001 153.992 106.001Z" fill="#9DC6D7"/>
<path d="M117.868 88.9767H126.263C127.482 88.9767 128.472 88.0928 128.472 87.005L129.996 79.5128C129.996 78.425 129.006 77.5411 127.787 77.5411H119.392C118.173 77.5411 117.183 78.425 117.183 79.5128L115.659 87.005C115.659 88.1064 116.65 88.9767 117.868 88.9767Z" fill="#A7D2E4"/>
<path d="M126.614 117.232H195.829C200.811 117.232 204.864 120.836 204.864 125.296V209.288C204.864 210.865 203.432 212.13 201.68 212.13H198.191" stroke="#9DC6D7" stroke-miterlimit="10" stroke-linecap="round"/>
<path d="M80.4498 116.145C81.303 118.334 81.0135 118.551 78.6825 120.061C78.6825 120.061 32.4881 122.889 27.8108 113.779C27.8108 113.779 14.3578 76.5349 29.6238 67.4518C35.4895 63.9572 39.7098 67.3566 41.0962 76.1814C42.9398 87.9569 41.34 106.001 41.34 106.001C41.34 106.001 68.4594 111.1 80.4498 116.145Z" fill="#0096CF"/>
<path d="M225.335 119.737H201.415C201.415 116.652 203.89 114.162 206.923 114.162H225.319V119.737H225.335Z" fill="#95C0D1"/>
<path d="M211.425 31.0809L209.124 33.7188L244.791 62.6001L216.529 115.549L221.739 117.765L250.839 63.2528L211.425 31.0809Z" stroke="#95C0D1" stroke-miterlimit="10" stroke-linecap="round"/>
<path d="M203.365 35.3776C197.271 29.9386 187.398 29.9386 181.304 35.3776L203.365 55.0669C209.459 49.6279 209.459 40.803 203.365 35.3776Z" fill="#6695A8"/>
<path d="M205.071 42.7338L195.107 33.841L202.009 27.6813C204.767 25.2202 209.215 25.2202 211.973 27.6813C214.731 30.1425 214.731 34.1129 211.973 36.5741L205.071 42.7338Z" fill="#6695A8"/>
</svg>
