<svg width="280" height="228" viewBox="0 0 280 228" fill="none" xmlns="http://www.w3.org/2000/svg">
<path d="M280 101.037C280 52.9129 237.313 13.8885 184.639 13.8885C171.314 13.8885 158.63 16.3934 147.113 20.91C126.877 28.8508 104.236 30.0232 83.1552 24.2009C78.1401 22.8152 72.8333 22.0691 67.3225 22.0691C37.1441 22.0691 12.6661 44.4258 12.6661 72.0187C12.6661 99.6115 37.1441 121.968 67.3225 121.968C80.8809 121.968 93.2876 128.963 99.367 140.048C115.025 168.587 147.317 188.186 184.639 188.186C237.313 188.186 280 149.175 280 101.037Z" fill="#F4D155"/>
<path d="M173.063 78.0272H44.1273V84.6756H173.063V78.0272Z" fill="#C4B06C"/>
<path d="M235.68 39.8157H106.744V46.4641H235.68V39.8157Z" fill="#C4B06C"/>
<path d="M162.64 183.136H143.585C142.594 183.136 141.792 182.403 141.792 181.497V179.859H164.433V181.497C164.433 182.403 163.631 183.136 162.64 183.136Z" fill="#6695A8"/>
<path d="M155.612 175.475H150.597V225.518H155.612V175.475Z" fill="#6695A8"/>
<path d="M87.106 220.988L86.9602 222.307C86.9602 223.786 85.8084 225.038 84.2193 225.291C83.0822 225.465 81.7555 225.651 80.56 225.744C79.5832 225.824 78.4752 225.904 77.4401 225.971C76.4342 226.037 76.0843 225.251 76.9444 224.758L80.1518 222.96L82.7323 221.707C83.5487 221.308 84.1173 220.575 84.2193 219.722C84.8462 214.886 87.1205 199.817 87.1205 199.817L93.477 200.403L87.106 220.988Z" fill="#FFA674"/>
<path d="M81.3328 223.093C80.8954 223.093 80.5163 223.04 80.1373 222.96L76.9299 224.758C76.0843 225.251 76.4196 226.024 77.4256 225.971C78.4607 225.904 79.5687 225.838 80.5455 225.744C81.7555 225.638 83.0822 225.464 84.2048 225.291C85.7939 225.051 87.106 223.799 87.106 222.32V220.988C86.3042 222.307 82.5865 223.093 81.3328 223.093Z" fill="#4F686E"/>
<path d="M182.205 124.713C195.385 124.713 206.07 114.948 206.07 102.902C206.07 90.8567 195.385 81.0918 182.205 81.0918C169.024 81.0918 158.339 90.8567 158.339 102.902C158.339 114.948 169.024 124.713 182.205 124.713Z" fill="#8C4D1A"/>
<path d="M198.416 139.049C198.416 161.778 180.353 180.191 158.091 180.191C135.814 180.191 115.272 183.229 115.272 160.499C115.272 149.174 135.566 150.56 143.454 137.783C151.385 124.913 146.982 98.9851 158.091 97.8926C185.703 95.188 198.416 116.319 198.416 139.049Z" fill="#D72241"/>
<path d="M172.771 94.8846C180.546 91.9631 184.257 83.8349 181.06 76.7297C177.864 69.6245 168.97 66.233 161.195 69.1545C153.42 72.076 149.709 80.2042 152.906 87.3094C156.103 94.4145 164.997 97.8061 172.771 94.8846Z" fill="#8C4D1A"/>
<path d="M126.834 160.287L156.75 162.365" stroke="#7E9CAF" stroke-width="0.8934" stroke-miterlimit="10"/>
<path d="M173.063 148.508L141.792 144.751C141.792 144.751 107.604 149.841 99.95 156.622C93.4478 162.378 85.5314 204.747 85.5314 204.747C85.5314 204.747 89.0449 206.625 91.9024 206.106C94.3663 199.271 106.088 181.977 114.004 170.692L160.686 168.773L173.063 148.508Z" fill="#FAC448"/>
<path d="M112.969 145.164L115.185 148.508C115.185 148.508 135.639 141.754 140.888 138.556C147.609 134.466 157.945 114.574 157.143 98.7455C156.341 82.9306 136.281 128.803 136.281 128.803L112.969 145.164Z" fill="#FF8C5B"/>
<path d="M157.129 98.7454C156.4 84.4094 142.608 103.209 137.36 123.567L144.11 130.109C152.405 128.577 157.901 113.934 157.129 98.7454Z" fill="#655AC3"/>
<path d="M158.557 92.0706C154.986 92.4037 145.393 96.867 141.792 107.286C137.345 120.21 141.792 144.738 141.792 144.738C155.817 146.737 169.798 148.775 175.265 158.981C175.265 158.981 185.222 137.863 183.691 117.398C182.204 97.6664 169.681 91.018 158.557 92.0706Z" fill="#473DAF"/>
<path d="M159.52 83.1435C159.52 83.1435 160.671 87.4603 156.166 94.6283C155.437 95.7874 155.408 97.253 156.239 98.3455C157.231 99.6379 160.409 100.61 164.418 97.5461C165.453 96.76 166.066 95.5875 166.095 94.3485C166.182 90.6179 165.628 81.6646 169.521 75.0562L159.52 83.1435Z" fill="#FF8C5B"/>
<path d="M148.614 69.9802C148.614 69.9802 148.046 79.9061 151.443 86.0882C152.594 88.1933 154.402 91.0445 156.327 91.2577C158.091 91.4575 160.569 90.1918 162.814 88.0467C164.185 86.7277 165.847 84.5693 166.984 81.878C169.375 76.1889 167.99 70.4998 161.983 67.8617C155.7 65.1171 148.104 63.5716 148.614 69.9802Z" fill="#FFA674"/>
<path d="M152.842 78.0673C152.813 78.7468 152.493 79.2931 152.128 79.2797C151.764 79.2664 151.501 78.7068 151.516 78.0273" fill="#5A2A15"/>
<path d="M159.228 78.4002C159.199 79.0797 158.878 79.626 158.514 79.6126C158.149 79.5993 157.887 79.0397 157.901 78.3602" fill="#5A2A15"/>
<path d="M154.84 77.8276C154.84 77.8276 153.382 81.0519 153.207 81.9979C153.032 82.9438 153.994 83.3702 154.577 83.3968C155.102 83.4102 155.525 83.0104 155.467 82.5308L154.84 77.8276Z" fill="#FF6308"/>
<path d="M157.143 75.7758C157.347 75.496 157.712 75.4427 158.018 75.4027C158.353 75.3627 158.674 75.4294 158.98 75.5359C159.593 75.7624 160.088 76.2821 160.161 76.8816C159.855 76.7484 159.636 76.6018 159.388 76.4952C159.155 76.3886 158.922 76.2821 158.689 76.2021C158.455 76.1089 158.222 76.0422 157.96 75.949C157.712 75.8824 157.435 75.7891 157.143 75.7758Z" fill="#8C4D1A"/>
<path d="M153.775 75.4828C153.134 75.6293 152.609 75.6826 152.113 75.8159C151.866 75.8692 151.632 75.9491 151.384 76.029C151.137 76.109 150.903 76.2555 150.597 76.4021C150.641 75.7892 151.253 75.2696 151.909 75.123C152.245 75.0564 152.58 75.0298 152.901 75.1097C153.207 75.163 153.528 75.2696 153.775 75.4828Z" fill="#8C4D1A"/>
<path d="M153.149 84.6626C153.09 85.7818 154.052 86.7277 155.263 86.7677C156.487 86.821 157.522 85.9416 157.566 84.8358L153.149 84.6626Z" fill="#F9F1EA"/>
<path d="M164.17 80.6521C165.584 81.5581 167.844 78.9201 169.375 77.5744C170.876 77.5211 171.27 73.5374 170.045 71.2591C169.331 69.9268 168.296 66.3428 168.267 66.2628C165.934 61.4531 163.018 61.4398 156.443 58.482C150.772 55.9372 144.634 57.4694 140.698 63.2651C137.578 67.8617 140.086 71.2058 140.523 71.7254C145.903 77.9475 153.265 74.4834 157.799 73.271C160.044 72.6714 162.975 73.5774 163.82 75.5759C164.258 76.6018 164.039 80.5589 164.17 80.6521Z" fill="#8C4D1A"/>
<path d="M169.244 80.2794C168.602 82.0914 166.299 83.2772 165.045 82.9041C163.791 82.5311 164.753 81.0122 165.395 79.2002C166.036 77.3882 166.896 75.9626 168.15 76.3224C169.389 76.7087 169.885 78.4674 169.244 80.2794Z" fill="#FFA674"/>
<path d="M99.9501 223.013L99.8043 224.332C99.8043 225.798 98.6526 227.063 97.0635 227.317C95.9263 227.49 94.5997 227.676 93.4042 227.769C92.4274 227.849 91.3194 227.929 90.2843 227.996C89.2783 228.063 88.9285 227.277 89.7886 226.784L92.996 224.985L95.5765 223.733C96.3929 223.333 96.9614 222.6 97.0635 221.747C97.6904 216.911 99.2795 201.789 99.2795 201.789L105.548 202.375L99.9501 223.013Z" fill="#FFA674"/>
<path d="M94.1769 225.118C93.7395 225.118 93.3459 225.065 92.9814 224.985L89.774 226.783C88.9285 227.276 89.2638 228.049 90.2697 227.996C91.3048 227.929 92.4128 227.863 93.3896 227.769C94.5997 227.663 95.9263 227.49 97.0489 227.316C98.638 227.076 99.9501 225.811 99.9501 224.332V223C99.1483 224.332 95.4307 225.118 94.1769 225.118Z" fill="#4F686E"/>
<path d="M106.336 160.393C101.481 163.884 99.3378 184.628 98.2152 203.774C101.335 204.693 102.472 204.853 105.869 204.667C105.869 204.667 111.949 191.197 117.955 173.863L162.421 171.025C170.089 171.025 173.326 165.229 174.565 160.1C175.484 156.329 173.486 152.439 169.783 150.587C163.82 147.616 155.773 146.283 147.011 145.524C147.011 145.511 109.412 158.195 106.336 160.393Z" fill="#FFE36A"/>
<path d="M129.604 159.967L96.8593 150.867L121.775 145.524L150.408 153.478C151.545 153.798 151.487 155.277 150.335 155.53L129.604 159.967Z" fill="#6695A8"/>
<path d="M137.374 150.027L137.782 152.705C137.782 152.705 159.549 150.48 173.064 145.151C174.959 144.405 183.094 107.566 172.043 99.0519C158.805 88.8462 162.377 137.677 162.377 137.677C162.377 137.677 152.186 144.751 137.374 150.027Z" fill="#FFA674"/>
<path d="M178.764 127.151C175.002 128.177 170.702 128.31 161.765 127.431C161.765 127.431 157.741 110.896 164.535 100.331C169.725 92.2569 177.947 99.9312 178.764 106.686C179.347 111.589 178.764 127.151 178.764 127.151Z" fill="#655AC3"/>
<path d="M127.665 151.466L130.77 150.52C132.651 149.907 133.831 149.414 135.785 149.761L139.634 150.427L138.628 152.718H127.562C126.498 152.705 126.673 151.786 127.665 151.466Z" fill="#FFA674"/>
<path d="M129.604 159.967L96.8593 150.867L89.3949 132.321C88.9429 131.188 90.0947 130.082 91.3485 130.429L119.559 138.276C120.492 138.529 121.235 139.182 121.571 140.008L129.604 159.967Z" fill="#95C0D1"/>
<path d="M181.607 108.325C184.741 114.88 186.257 122.541 186.257 130.402C186.257 153.132 170.221 170.252 147.959 169.679C131.659 169.253 119.355 173.77 119.355 173.77C126.425 181.804 141.792 180.191 158.091 180.191C180.368 180.191 198.416 161.765 198.416 139.049C198.416 123.18 192.22 108.085 179.07 101.343L181.607 108.325Z" fill="#E63F4A"/>
<path d="M171.212 222.52C171.212 225.065 163.077 227.143 153.032 227.143C142.987 227.143 134.852 225.078 134.852 222.52C134.852 219.975 142.987 213.567 153.032 213.567C163.077 213.567 171.212 219.962 171.212 222.52Z" fill="#6695A8"/>
<path d="M248.116 76.5752H243.13V196.766H248.116V76.5752Z" fill="#6695A8"/>
<path d="M268.337 94.5086H222.923C220.022 94.5086 217.894 91.9905 218.652 89.4191L229.047 53.9654C229.571 52.1934 231.321 50.9677 233.318 50.9677H257.957C259.954 50.9677 261.718 52.1934 262.228 53.9654L272.623 89.4191C273.352 91.9905 271.238 94.5086 268.337 94.5086Z" fill="#FFE36A"/>
<path d="M261.835 94.5085H260.552V125.859H261.835V94.5085Z" fill="#6695A8"/>
<path d="M263.642 200.203C263.642 202.881 255.58 205.053 245.623 205.053C235.665 205.053 227.603 202.881 227.603 200.203C227.603 197.525 235.665 191.849 245.623 191.849C255.58 191.849 263.642 197.525 263.642 200.203Z" fill="#6695A8"/>
<path d="M245.623 55.0444L243.13 88.6195H248.116L245.623 55.0444Z" fill="#EACC51"/>
<path d="M240.739 55.0444L233.872 88.6195H238.873L240.739 55.0444Z" fill="#EACC51"/>
<path d="M236.088 55.0444L224.848 88.6195H229.834L236.088 55.0444Z" fill="#EACC51"/>
<path d="M250.507 55.0444L257.374 88.6195H252.388L250.507 55.0444Z" fill="#EACC51"/>
<path d="M255.172 55.0444L266.412 88.6195H261.426L255.172 55.0444Z" fill="#EACC51"/>
<path d="M135.552 39.9757C144.497 39.9757 151.749 33.3485 151.749 25.1734C151.749 16.9983 144.497 10.3711 135.552 10.3711C126.606 10.3711 119.355 16.9983 119.355 25.1734C119.355 33.3485 126.606 39.9757 135.552 39.9757Z" fill="#A9D9ED"/>
<path d="M143.09 32.057C147.257 28.2484 147.257 22.0734 143.09 18.2647C138.922 14.4561 132.165 14.4561 127.998 18.2647C123.83 22.0734 123.83 28.2484 127.998 32.057C132.165 35.8657 138.922 35.8657 143.09 32.057Z" fill="#BADEED"/>
<path d="M171.212 8.85205H161.852V39.8157H171.212V8.85205Z" fill="#BADEED"/>
<path d="M182.204 13.9017H175.265V39.8158H182.204V13.9017Z" fill="#BADEED"/>
<path d="M69.5967 66.5293C69.5967 72.8712 75.2241 78.0141 82.1637 78.0141C89.1033 78.0141 94.7308 72.8712 94.7308 66.5293H69.5967Z" fill="#A0CDE0"/>
<path d="M122.343 78.3607H108.96C107.065 78.3607 105.534 76.9618 105.534 75.2297V62.9988C105.534 61.2668 107.065 59.8678 108.96 59.8678H122.343C124.239 59.8678 125.769 61.2668 125.769 62.9988V75.2297C125.769 76.9618 124.239 78.3607 122.343 78.3607Z" fill="#BADEED"/>
<path d="M1.43048 189.827H0L11.1106 132.349H16.7075L1.43048 189.827Z" fill="#6695A8"/>
<path d="M38.8869 189.827H40.3174L29.2068 132.349H23.6099L38.8869 189.827Z" fill="#6695A8"/>
<path d="M21.1194 100.368C21.1194 100.368 13.5767 89.0359 21.1194 75.416C28.662 61.7962 29.1394 67.6113 30.3997 75.416C31.66 83.2208 21.1194 100.368 21.1194 100.368Z" fill="#469757"/>
<path d="M25.9314 77.2327C25.9314 77.2327 20.2028 99.628 21.1193 110.931" stroke="#428F52" stroke-width="0.8174" stroke-miterlimit="10"/>
<path d="M32.1469 102.877C31.555 102.675 29.4545 102.118 27.058 103.358C24.7093 104.588 22.8857 107.145 21.6254 110.922H22.7616C23.9264 107.606 25.5304 105.376 27.5545 104.319C29.5595 103.271 31.3067 103.732 31.7937 103.896C34.2092 104.722 35.5745 112.123 35.8991 114.911C35.9087 114.92 35.6509 104.078 32.1469 102.877Z" fill="#4BA35E"/>
<path d="M9.50944 82.0579C9.50944 82.0579 18.6179 84.8933 19.3053 91.1025C19.9927 97.3117 18.045 105.001 18.045 105.001C18.045 105.001 11.5717 99.9453 9.50944 93.5343C7.44715 87.1136 9.50944 82.0579 9.50944 82.0579Z" fill="#4FAB63"/>
<path d="M12.8798 88.5072C12.8798 88.5072 18.8852 103.098 18.5415 110.941" stroke="#4BA35E" stroke-width="0.8174" stroke-miterlimit="10"/>
<path d="M20.0011 134.521C26.6024 134.521 31.9449 129.533 31.9449 123.37V110.105H8.05719V123.37C8.05719 129.52 13.3998 134.521 20.0011 134.521Z" fill="#66C4F0"/>
<path d="M13.4837 110.105V123.37C13.4837 128.658 17.4277 133.072 22.7143 134.221C21.8472 134.416 20.9381 134.521 20.0011 134.521C13.4138 134.521 8.05719 129.533 8.05719 123.37V110.105H13.4837Z" fill="#47BAF0"/>
<path d="M10.0152 135.095H30.1548C32.5044 135.095 34.4065 133.32 34.4065 131.126V130.682H5.76355V131.126C5.76355 133.32 7.66562 135.095 10.0152 135.095Z" fill="#44717F"/>
<path d="M23.8118 106.327C23.8118 106.327 33.1016 94.5627 36.5483 97.7922C39.995 101.022 40.6633 122.475 36.5483 122.014C32.4333 121.552 32.1469 106.097 23.8118 106.327Z" fill="#4FAB63"/>
<path d="M192.356 4.80315C192.375 7.81234 190.332 10.8987 190.332 10.8987C190.332 10.8987 188.241 7.84127 188.222 4.83208C188.203 1.82289 190.256 0 190.256 0C190.256 0 192.337 1.79395 192.356 4.80315Z" fill="#4AAE5F"/>
<path d="M190.953 21.971L190.084 5.04431" stroke="#97D2DB" stroke-width="0.5" stroke-miterlimit="10"/>
<path d="M185.797 10.3489C187.821 12.0174 188.738 15.152 188.738 15.152C188.738 15.152 185.52 14.8723 183.496 13.1941C181.472 11.5255 181.405 9.09505 181.405 9.09505C181.405 9.09505 183.773 8.6803 185.797 10.3489Z" fill="#4AAE5F"/>
<path d="M196.872 11.9308C195.383 14.1009 192.375 15.2775 192.375 15.2775C192.375 15.2775 192.395 12.0176 193.874 9.83785C195.364 7.66776 197.751 7.39771 197.751 7.39771C197.751 7.39771 198.352 9.75106 196.872 11.9308Z" fill="#4AAE5F"/>
<path d="M191.783 23.1379C191.783 23.1379 191.382 15.0748 194.61 11.6027" stroke="#97D2DB" stroke-width="0.5" stroke-miterlimit="10"/>
<path d="M189.874 23.1381C189.874 23.1381 191.354 15.6537 186.351 13.1942" stroke="#97D2DB" stroke-width="0.5" stroke-miterlimit="10"/>
<path d="M192.834 22.7231V20.553H188.069V22.7231C188.069 24.816 187.258 26.8414 185.778 28.3074C184.48 29.5902 183.697 31.4034 183.783 33.3999C183.916 36.8817 186.809 39.7655 190.256 39.8716C194.037 39.9874 197.14 36.9203 197.14 33.1299C197.14 31.2781 196.405 29.6095 195.202 28.3846C193.712 26.8704 192.834 24.8546 192.834 22.7231Z" fill="#BADEED"/>
<path d="M193.741 19.9552H187.382V21.1608H193.741V19.9552Z" fill="#BADEED"/>
</svg>
