<svg width="280" height="229" viewBox="0 0 280 229" fill="none" xmlns="http://www.w3.org/2000/svg">
<path d="M270.061 106.463C270.061 106.463 242.259 122.406 239.842 178.337" stroke="#4AAE5F" stroke-width="0.75" stroke-miterlimit="10"/>
<path d="M204.821 136.114C211.771 139.399 219.729 139.544 219.729 139.544C219.729 139.544 216.388 134.35 209.438 131.065C202.487 127.78 194.53 127.635 194.53 127.635C194.53 127.635 197.854 132.828 204.821 136.114Z" fill="#4AAE5F"/>
<path d="M273.217 108.565C267.728 113.07 260.122 114.736 260.122 114.736C260.122 114.736 261.415 109.096 266.905 104.591C272.395 100.086 280 98.4197 280 98.4197C280 98.4197 278.707 104.06 273.217 108.565Z" fill="#4AAE5F"/>
<path d="M267.879 121.79C260.962 125.135 253.021 125.328 253.021 125.328C253.021 125.328 256.278 120.111 263.195 116.777C270.112 113.432 278.053 113.239 278.053 113.239C278.053 113.239 274.779 118.444 267.879 121.79Z" fill="#4AAE5F"/>
<path d="M262.473 132.563C255.556 135.908 247.615 136.101 247.615 136.101C247.615 136.101 250.872 130.884 257.789 127.551C264.706 124.205 272.647 124.012 272.647 124.012C272.647 124.012 269.373 129.229 262.473 132.563Z" fill="#4AAE5F"/>
<path d="M258.846 143.167C251.93 146.512 243.989 146.706 243.989 146.706C243.989 146.706 247.246 141.488 254.162 138.155C261.079 134.809 269.02 134.616 269.02 134.616C269.02 134.616 265.747 139.833 258.846 143.167Z" fill="#4AAE5F"/>
<path d="M245.432 135.486C246.977 140.981 244.375 146.005 244.375 146.005C244.375 146.005 239.271 142.104 237.726 136.609C236.182 131.114 238.784 126.089 238.784 126.089C238.784 126.089 243.888 129.978 245.432 135.486Z" fill="#4AAE5F"/>
<path d="M240.043 147.442C242.578 151.657 241.688 155.981 241.688 155.981C241.688 155.981 236.685 153.493 234.15 149.278C231.615 145.063 232.505 140.739 232.505 140.739C232.505 140.739 237.508 143.239 240.043 147.442Z" fill="#4AAE5F"/>
<path d="M250.351 154.604C247.01 158.517 241.571 160.474 241.571 160.474C241.571 160.474 241.537 156.09 244.878 152.189C248.219 148.276 253.659 146.319 253.659 146.319C253.659 146.319 253.692 150.703 250.351 154.604Z" fill="#4AAE5F"/>
<path d="M248.622 165.414C245.281 169.327 239.842 171.283 239.842 171.283C239.842 171.283 239.808 166.899 243.149 162.998C246.49 159.085 251.93 157.128 251.93 157.128C251.93 157.128 251.963 161.5 248.622 165.414Z" fill="#4AAE5F"/>
<path d="M239.657 159.447C241.823 163.759 240.547 168.047 240.547 168.047C240.547 168.047 235.779 165.329 233.613 161.017C231.448 156.706 232.723 152.418 232.723 152.418C232.723 152.418 237.508 155.124 239.657 159.447Z" fill="#4AAE5F"/>
<path d="M253.004 121.935C253.289 127.925 249.327 132.877 249.327 132.877C249.327 132.877 244.912 128.13 244.627 122.14C244.341 116.15 248.303 111.198 248.303 111.198C248.303 111.198 252.719 115.944 253.004 121.935Z" fill="#4AAE5F"/>
<path d="M260.089 109.205C260.357 114.724 256.697 119.302 256.697 119.302C256.697 119.302 252.618 114.918 252.366 109.398C252.114 103.879 255.757 99.3013 255.757 99.3013C255.757 99.3013 259.82 103.673 260.089 109.205Z" fill="#4AAE5F"/>
<path d="M193.052 99.4946C193.052 99.4946 221.089 115.232 224.312 171.138V178.337" stroke="#4AAE5F" stroke-width="0.75" stroke-miterlimit="10"/>
<path d="M195.47 114.797C202.42 118.082 210.378 118.227 210.378 118.227C210.378 118.227 207.037 113.033 200.086 109.748C193.136 106.463 185.178 106.318 185.178 106.318C185.178 106.318 188.519 111.512 195.47 114.797Z" fill="#4AAE5F"/>
<path d="M201.027 125.534C207.977 128.819 215.935 128.964 215.935 128.964C215.935 128.964 212.594 123.77 205.644 120.485C198.693 117.2 190.735 117.055 190.735 117.055C190.735 117.055 194.076 122.249 201.027 125.534Z" fill="#4AAE5F"/>
<path d="M218.117 128.324C216.657 133.831 219.326 138.831 219.326 138.831C219.326 138.831 224.38 134.894 225.84 129.386C227.301 123.879 224.631 118.879 224.631 118.879C224.631 118.879 219.578 122.816 218.117 128.324Z" fill="#4AAE5F"/>
<path d="M223.674 140.256C221.19 144.483 222.147 148.807 222.147 148.807C222.147 148.807 227.116 146.283 229.601 142.044C232.085 137.817 231.128 133.493 231.128 133.493C231.128 133.493 226.142 136.017 223.674 140.256Z" fill="#4AAE5F"/>
<path d="M213.467 147.491C216.858 151.38 222.331 153.3 222.331 153.3C222.331 153.3 222.298 148.916 218.906 145.039C215.515 141.15 210.042 139.23 210.042 139.23C210.042 139.23 210.076 143.602 213.467 147.491Z" fill="#4AAE5F"/>
<path d="M215.364 158.276C218.755 162.165 224.228 164.085 224.228 164.085C224.228 164.085 224.195 159.701 220.803 155.824C217.412 151.935 211.939 150.015 211.939 150.015C211.939 150.015 211.973 154.399 215.364 158.276Z" fill="#4AAE5F"/>
<path d="M224.228 152.237C222.13 156.573 223.456 160.848 223.456 160.848C223.456 160.848 228.19 158.095 230.289 153.759C232.387 149.423 231.061 145.147 231.061 145.147C231.061 145.147 226.327 147.913 224.228 152.237Z" fill="#4AAE5F"/>
<path d="M210.344 114.833C210.143 120.824 214.189 125.751 214.189 125.751C214.189 125.751 218.537 120.968 218.738 114.978C218.94 108.988 214.894 104.06 214.894 104.06C214.894 104.06 210.546 108.843 210.344 114.833Z" fill="#4AAE5F"/>
<path d="M203.075 102.152C202.89 107.671 206.617 112.212 206.617 112.212C206.617 112.212 210.63 107.804 210.814 102.272C210.999 96.7529 207.272 92.2118 207.272 92.2118C207.272 92.2118 203.259 96.6322 203.075 102.152Z" fill="#4AAE5F"/>
<path d="M245.919 76.0884C242.142 93.009 239.12 110.014 236.803 127.068C235.628 135.594 234.755 144.133 234.083 152.684C233.378 161.235 233.193 169.786 233.244 178.349H231.498C231.599 169.774 231.918 161.187 232.774 152.636C233.596 144.085 234.62 135.534 235.93 127.019C238.549 109.954 241.856 92.9727 245.919 76.0884Z" fill="#4AAE5F"/>
<path d="M236.047 221.417H226.663C222.365 221.417 218.806 219.038 218.487 215.958L214.541 178.349H248.186L244.24 215.958C243.904 219.038 240.345 221.417 236.047 221.417Z" fill="#39B4E9"/>
<path d="M241.151 178.337L237.206 215.946C236.887 219.026 233.311 221.405 229.03 221.405H236.064C240.362 221.405 243.921 219.026 244.24 215.946L248.186 178.337H241.151Z" fill="#2CA9D4"/>
<path d="M244.576 224.557H218.386C216.237 224.557 214.491 223.301 214.491 221.755V218.772H248.471V221.755C248.471 223.301 246.725 224.557 244.576 224.557Z" fill="#70A0B3"/>
<path d="M189.929 101.62C195.486 106.089 203.108 107.695 203.108 107.695C203.108 107.695 201.732 102.067 196.175 97.5984C190.618 93.1297 182.996 91.5234 182.996 91.5234C182.996 91.5234 184.389 97.1637 189.929 101.62Z" fill="#4AAE5F"/>
<path d="M94.5497 150.933C117.768 150.136 138.452 143.131 153.713 132.286C164.373 124.713 178.946 120.365 193.905 121.054C197.43 121.223 201.073 121.066 204.767 120.546C223.452 117.938 237.437 106.174 238.176 92.5023C238.327 89.7003 237.958 86.995 237.118 84.4225C234.533 76.4151 236.665 67.9367 243.297 61.2578C250.851 53.661 254.662 44.0594 252.916 33.9264C249.609 14.6265 226.307 -0.1081 199.277 0.000597502C186.82 0.0489076 175.488 3.09246 166.472 8.12878C147.568 18.7087 123.393 23.1532 99.5695 21.402C94.5329 21.0276 89.3621 20.9672 84.1408 21.2208C34.3794 23.6725 -3.1934 54.6755 0.214686 90.4733C3.58919 125.969 45.1577 152.624 94.5497 150.933Z" fill="#F4D155"/>
<path d="M104.321 181.151H111.859L114.713 162.395H101.467L104.321 181.151Z" fill="#A097AA"/>
<path d="M126.498 214.026C129.549 214.026 132.022 212.247 132.022 210.053C132.022 207.858 129.549 206.079 126.498 206.079C123.448 206.079 120.975 207.858 120.975 210.053C120.975 212.247 123.448 214.026 126.498 214.026Z" fill="#67546E"/>
<path d="M89.2615 214.026C92.312 214.026 94.7849 212.247 94.7849 210.053C94.7849 207.858 92.312 206.079 89.2615 206.079C86.211 206.079 83.738 207.858 83.738 210.053C83.738 212.247 86.211 214.026 89.2615 214.026Z" fill="#67546E"/>
<path d="M107.796 158.47V203.821" stroke="#A097AA" stroke-width="2.78" stroke-miterlimit="10"/>
<path d="M132.022 210.053C132.022 206.611 128.144 203.821 123.359 203.821H92.1323C87.3475 203.821 83.4694 206.611 83.4694 210.053" stroke="#A097AA" stroke-width="2.78" stroke-miterlimit="10"/>
<path d="M108.081 167.89H133.382L137.713 171.767" stroke="#A097AA" stroke-width="2.78" stroke-miterlimit="10"/>
<path d="M137.545 101.246C163.601 119.991 184.251 130.51 158.195 149.255C132.139 167.999 89.8992 167.999 63.8433 149.255C37.7874 130.51 37.7874 100.123 63.8433 81.379C89.8992 62.6346 111.489 82.5021 137.545 101.246Z" fill="#E63F4A"/>
<path d="M134.842 213.036L134.204 215.427C133.952 216.369 134.288 217.336 135.128 218.072C136.135 218.978 137.528 220.367 138.536 221.925C139.039 222.71 137.847 223.507 136.807 223.072C134.322 222.022 130.763 220.403 128.647 218.93C127.59 218.193 127.439 216.997 128.244 216.116L132.374 211.526L134.842 213.036Z" fill="#FFA674"/>
<path d="M88.6569 46.2454C85.8196 47.3927 84.0904 49.0594 83.0663 50.8107C80.5144 55.1465 75.7968 58.7214 69.6522 60.3398C64.2463 61.765 58.4206 64.422 55.3483 69.3617C52.7965 73.456 52.4271 77.0189 52.6621 79.531C52.8804 81.7774 51.9403 83.9514 50.1271 85.7872C45.208 90.751 48.3643 98.4202 57.5812 100.002C97.5548 106.862 106.436 82.5987 112.111 47.6584C112.111 47.6584 105.546 39.4457 88.6569 46.2454Z" fill="#8C4D1A"/>
<path d="M129.957 214.219C130.125 215.572 131.182 216.864 133.449 217.589C133.969 217.758 134.49 217.867 134.993 217.939C135.044 217.988 135.077 218.048 135.128 218.096C136.135 219.002 137.528 220.391 138.536 221.949C139.039 222.734 137.847 223.531 136.807 223.096C134.322 222.046 130.763 220.427 128.647 218.954C127.59 218.217 127.439 217.021 128.244 216.14L129.957 214.219Z" fill="#783722"/>
<path d="M82.1599 197.806L82.7979 200.198C83.0497 201.14 82.7139 202.106 81.8745 202.843C80.8672 203.748 79.4737 205.137 78.4664 206.695C77.9628 207.48 79.1548 208.277 80.1956 207.843C82.6804 206.792 86.2395 205.173 88.3549 203.7C89.4126 202.963 89.5636 201.768 88.7578 200.886L84.6278 196.297L82.1599 197.806Z" fill="#FFA674"/>
<path d="M87.0454 198.978C86.8775 200.33 85.8198 201.623 83.5534 202.347C83.0329 202.516 82.5124 202.625 82.0088 202.685C81.9584 202.734 81.9249 202.794 81.8745 202.842C80.8672 203.748 79.4737 205.137 78.4664 206.695C77.9628 207.48 79.1548 208.277 80.1956 207.843C82.6804 206.792 86.2395 205.173 88.3549 203.7C89.4126 202.963 89.5636 201.768 88.7578 200.886L87.0454 198.978Z" fill="#783722"/>
<path d="M140.399 153.047L122.1 149.291C115.418 147.914 108.283 148.155 101.786 149.967L76.2669 157.093L60.3177 134.834H150.54L140.399 153.047Z" fill="#3A2F8C"/>
<path d="M130.914 212.661C130.914 212.661 131.871 170.946 137.361 147.817C139.358 139.387 147.115 133.554 156.97 135.22C183.664 139.762 135.027 213.845 135.027 213.845C133.533 214.232 132.207 213.628 130.914 212.661Z" fill="#3A2F8C"/>
<path d="M117.97 102.249C117.97 105.256 117.533 128.602 158.078 132.66L158.951 126.658C158.951 126.658 143.136 119.471 132.173 99.3866C129.033 93.6256 117.315 95.6063 117.936 101.778C117.953 101.947 117.97 102.104 117.97 102.249Z" fill="#BAB993"/>
<path d="M85.7861 197.673C85.7861 197.673 86.2058 166.598 80.7327 143.457C78.7349 135.027 70.1727 133.131 60.3178 134.81C33.6239 139.351 81.2028 199.147 81.2028 199.147C83.0663 199.086 84.6109 198.603 85.7861 197.673Z" fill="#3A2F8C"/>
<path d="M106.839 74.0116C116.929 73.9271 129.823 82.2002 131.569 101.126C133.835 125.909 130.914 138.747 130.914 138.747C130.914 138.747 107.846 147.769 75.3604 135.824C75.3604 135.824 72.8421 104.29 76.3342 87.8645C80.2291 69.4826 97.8068 74.0841 106.839 74.0116Z" fill="#D1D1AB"/>
<path d="M75.4947 115.148C75.4947 115.148 71.1129 126.054 111.808 132.551L112.849 126.597C112.849 126.597 98.4783 112.611 85.9708 108.662C73.4633 104.713 75.4947 115.148 75.4947 115.148Z" fill="#BAB993"/>
<path d="M66.0092 109.966C66.0092 109.966 71.1129 124.302 111.808 130.788L114.092 125.643C114.092 125.643 91.8972 112.261 85.8029 103.481C81.7904 97.7077 85.8029 75.2194 85.8029 75.2194C67.7552 83.9273 66.0092 109.966 66.0092 109.966Z" fill="#D1D1AB"/>
<path d="M158.061 128.143C158.061 128.143 160.176 122.732 161.452 121.996C162.728 121.259 162.795 126.259 162.795 126.259L169.544 126.935C171.173 127.092 172.701 127.563 174.01 128.276L175.706 129.206C176.763 129.786 176.394 131.005 175.085 131.199L167.832 132.322C166.623 132.515 157.725 132.406 157.725 132.406L158.061 128.143Z" fill="#FFA674"/>
<path d="M89.362 101.126C89.362 101.126 86.5583 103.783 87.7 105.812C90.5708 110.896 105.916 119.616 114.092 125.631C100.493 116.452 92.0986 108.251 89.362 101.126Z" fill="#BAB993"/>
<path d="M234.869 138.759H57.3632V141.525H234.869V138.759Z" fill="#C27A40"/>
<path d="M38.6774 227.771L80.3634 137.455L68.3596 136.61L34.3795 227.771H38.6774Z" fill="#C27A40"/>
<path d="M255.3 227.771L221.32 136.61L209.316 137.455L250.986 227.771H255.3Z" fill="#C27A40"/>
<path d="M244.17 132.298H48.5658V139.375H244.17V132.298Z" fill="#8C4D1A"/>
<path d="M195.483 132.286H148.525C148.525 129.906 151.194 127.986 154.502 127.986H189.523C192.813 127.986 195.483 129.918 195.483 132.286Z" fill="#134CAF"/>
<path d="M202.517 132.286H185.779L180.491 117.31H197.246L202.517 132.286Z" fill="#6695A8"/>
<path d="M224.963 120.16H148.307C145.889 120.16 143.942 118.747 143.942 117.02L150.187 80.7388C150.187 78.9996 152.151 77.5986 154.552 77.5986H231.209C233.626 77.5986 235.574 79.0117 235.574 80.7388L229.328 117.02C229.328 118.747 227.381 120.16 224.963 120.16Z" fill="#134CAF"/>
<path d="M194.794 130.136H204.162C209.652 130.136 214.118 133.336 214.118 137.298V228" stroke="#95C0D1" stroke-miterlimit="10" stroke-linecap="round"/>
<path d="M129.067 132.298H112.833V131.223C112.833 129.701 114.545 128.457 116.677 128.457H125.223C127.338 128.457 129.067 129.689 129.067 131.223V132.298Z" fill="white"/>
<path d="M114.092 125.643C117.5 125.015 121.093 125.184 124.35 126.15L125.642 126.537C127.153 126.984 128.48 127.708 129.504 128.638L130.813 129.846C131.636 130.607 130.847 131.706 129.52 131.67L122.1 131.464C120.858 131.428 119.649 131.235 118.507 130.909L112.295 129.737L114.092 125.643Z" fill="#FFA674"/>
<path d="M237.538 130.148H245.882C251.07 130.148 255.284 133.179 255.284 136.911V227.541" stroke="#95C0D1" stroke-miterlimit="10" stroke-linecap="round"/>
<path d="M107.343 67.3569H99.2506C98.9484 69.1203 98.4615 71.1372 97.6725 73.4078C97.3199 74.4464 97.6557 75.5334 98.579 76.3668C101.248 78.7581 106.906 82.8041 109.811 77.49C110.247 76.705 110.23 75.8233 109.827 75.0383C109.089 73.5527 107.83 70.7145 107.343 67.3569Z" fill="#F58251"/>
<path d="M96.6819 61.451C96.6819 61.451 96.3461 65.8472 99.9221 69.2531C101.265 70.5212 103.464 72.7073 107.712 72.6106C110.348 72.5503 112.379 70.9681 113.806 69.3497C118.457 64.096 118.054 53.818 118.054 53.818C118.054 53.818 103.095 49.3856 98.0082 55.4847C96.9169 56.777 96.6819 59.1442 96.6819 61.451Z" fill="#FF9669"/>
<path d="M105.748 67.3569C105.748 68.3835 106.906 69.2048 108.316 69.2048C109.743 69.2048 110.885 68.3714 110.885 67.3569H105.748Z" fill="#F9F8F7"/>
<path d="M104.942 62.1153C104.942 62.6346 104.64 63.0573 104.27 63.0573C103.901 63.0573 103.599 62.6346 103.599 62.1153C103.599 61.5959 103.901 61.1732 104.27 61.1732C104.64 61.1732 104.942 61.5959 104.942 62.1153Z" fill="#523528"/>
<path d="M113.823 62.1153C113.823 62.6346 113.521 63.0573 113.151 63.0573C112.782 63.0573 112.48 62.6346 112.48 62.1153C112.48 61.5959 112.782 61.1732 113.151 61.1732C113.521 61.1732 113.823 61.5959 113.823 62.1153Z" fill="#523528"/>
<path d="M108.988 61.8254L110.113 65.1347C110.18 65.5091 110.029 66.1492 108.77 66.1492C108.216 66.1492 107.796 65.7748 107.914 65.3762L108.988 61.8254Z" fill="#FF640A"/>
<path d="M105.798 59.5427C105.059 59.9291 104.321 60.0741 103.565 60.1828C102.81 60.2794 102.105 60.3156 101.198 60.2552C101.718 59.6876 102.558 59.4581 103.347 59.3374C104.136 59.2528 104.959 59.2528 105.798 59.5427Z" fill="#C96E35"/>
<path d="M111.07 60.0983C111.573 59.6756 112.245 59.5669 112.883 59.5669C113.521 59.6031 114.226 59.7843 114.595 60.2674C113.856 60.4123 113.37 60.4365 112.816 60.4244C112.278 60.4003 111.741 60.3399 111.07 60.0983Z" fill="#C96E35"/>
<path d="M97.8907 53.1417C97.8907 53.1417 106.721 60.509 116.073 60.2312C125.424 59.9534 128.211 52.7673 127.573 50.0498C126.935 47.3324 125.306 38.5037 109.559 45.5811C109.559 45.5811 87.146 44.0352 97.8907 53.1417Z" fill="#8C4D1A"/>
<path d="M98.2097 61.8858C98.8645 63.6733 98.4112 65.3158 97.2024 65.5453C95.9936 65.7748 94.4827 64.5066 93.8279 62.7192C93.1732 60.9317 93.6265 59.2891 94.8353 59.0597C96.044 58.8302 97.5718 60.0983 98.2097 61.8858Z" fill="#FF9669"/>
</svg>
