<svg width="30" height="30" viewBox="0 0 30 30" fill="none" xmlns="http://www.w3.org/2000/svg">
<path d="M14.7732 14.4511C17.1528 14.4511 19.2131 13.7391 20.8969 12.3342C22.5803 10.9296 23.434 9.2109 23.434 7.22534C23.434 5.24048 22.5806 3.52158 20.8967 2.11647C19.2128 0.712052 17.1525 0 14.7732 0C12.3933 0 10.3333 0.712052 8.64966 2.1167C6.96605 3.52135 6.1123 5.24025 6.1123 7.22534C6.1123 9.2109 6.96605 10.9298 8.64966 12.3344C10.3338 13.7389 12.3941 14.4511 14.7732 14.4511V14.4511ZM10.1399 3.35976C11.4317 2.28195 12.9472 1.75804 14.7732 1.75804C16.5989 1.75804 18.1146 2.28195 19.4067 3.35976C20.6986 4.43779 21.3268 5.70236 21.3268 7.22534C21.3268 8.74878 20.6986 10.0131 19.4067 11.0912C18.1146 12.1692 16.5989 12.6931 14.7732 12.6931C12.9477 12.6931 11.4323 12.169 10.1399 11.0912C8.84773 10.0134 8.2195 8.74878 8.2195 7.22534C8.2195 5.70236 8.84773 4.43779 10.1399 3.35976Z" fill="white"/>
<path d="M29.9273 23.0684C29.8787 22.4839 29.7805 21.8462 29.636 21.1728C29.49 20.4944 29.3021 19.8531 29.0771 19.2669C28.8445 18.6611 28.5287 18.0628 28.1378 17.4894C27.7326 16.8943 27.2563 16.3762 26.7219 15.9498C26.1631 15.5037 25.4789 15.145 24.6877 14.8834C23.8993 14.6232 23.0255 14.4913 22.0908 14.4913C21.7238 14.4913 21.3688 14.617 20.6832 14.9894C20.2613 15.2189 19.7677 15.4844 19.2169 15.7781C18.7458 16.0285 18.1077 16.2631 17.3195 16.4755C16.5506 16.6831 15.7698 16.7884 14.9989 16.7884C14.2286 16.7884 13.4478 16.6831 12.6783 16.4755C11.8909 16.2633 11.2525 16.0287 10.7823 15.7783C10.2367 15.4874 9.74285 15.2219 9.31461 14.9891C8.62959 14.6167 8.27459 14.4911 7.90753 14.4911C6.97258 14.4911 6.09909 14.6232 5.31092 14.8836C4.52027 15.1448 3.8358 15.5034 3.27642 15.95C2.74201 16.3766 2.26576 16.8946 1.86084 17.4894C1.47045 18.0628 1.15442 18.6609 0.921777 19.2672C0.697094 19.8533 0.509172 20.4944 0.363224 21.1728C0.218373 21.8453 0.120435 22.4832 0.0718767 23.0691C0.0241418 23.642 0 24.2383 0 24.8407C0 26.4067 0.596686 27.6745 1.77332 28.6094C2.93542 29.5321 4.47281 29.9999 6.34298 29.9999H23.657C25.5266 29.9999 27.064 29.5321 28.2264 28.6094C29.4033 27.6751 30 26.4069 30 24.8404C29.9997 24.236 29.9753 23.6397 29.9273 23.0684V23.0684ZM26.7735 27.3357C26.0056 27.9455 24.9862 28.2419 23.6567 28.2419H6.34298C5.01326 28.2419 3.99382 27.9455 3.22622 27.3359C2.47316 26.7379 2.10719 25.9215 2.10719 24.8407C2.10719 24.2785 2.12941 23.7235 2.17386 23.1907C2.2172 22.6679 2.30581 22.0936 2.43722 21.4834C2.56698 20.8808 2.73214 20.3152 2.92856 19.8032C3.11703 19.3123 3.37409 18.8261 3.69287 18.3578C3.99711 17.9115 4.34717 17.5286 4.73343 17.22C5.09474 16.9314 5.55014 16.6952 6.08675 16.5181C6.58302 16.3542 7.14075 16.2645 7.74622 16.251C7.82002 16.2837 7.95142 16.3462 8.16431 16.462C8.59749 16.6975 9.09679 16.9662 9.64876 17.2603C10.271 17.5913 11.0726 17.8902 12.0303 18.1482C13.0094 18.4123 14.008 18.5464 14.9992 18.5464C15.9904 18.5464 16.9892 18.4123 17.9678 18.1484C18.9263 17.89 19.7277 17.5913 20.3507 17.2599C20.9156 16.9587 21.4009 16.6977 21.834 16.462C22.0469 16.3464 22.1783 16.2837 22.2521 16.251C22.8579 16.2645 23.4156 16.3542 23.9122 16.5181C24.4485 16.6952 24.9039 16.9317 25.2652 17.22C25.6515 17.5284 26.0015 17.9113 26.3058 18.358C26.6248 18.8261 26.8821 19.3125 27.0703 19.803C27.267 20.3157 27.4325 20.881 27.562 21.4832C27.6931 22.0945 27.782 22.669 27.8253 23.1909V23.1913C27.87 23.7221 27.8925 24.2769 27.8928 24.8407C27.8925 25.9217 27.5266 26.7379 26.7735 27.3357V27.3357Z" fill="white"/>
</svg>
