<svg width="70" height="66" viewBox="0 0 70 66" fill="none" xmlns="http://www.w3.org/2000/svg">
<path d="M45.1077 8.53682C45.1985 9.45244 45.0017 10.2243 44.245 10.6481C43.6851 10.9659 43.1327 10.701 42.6181 10.3378C42.2473 10.0805 41.8765 9.82323 41.483 9.59622C37.8886 7.51526 34.2791 5.26025 30.6923 3.17929C28.967 2.18043 29.0729 2.22583 30.5788 1.08319C32.6371 -0.490769 34.2489 -0.218352 36.5341 1.06049C38.774 2.31664 40.4463 3.26253 42.4592 4.47327C44.1391 5.32079 45.0169 6.28181 45.1077 8.53682Z" fill="url(#paint0_linear)"/>
<path d="M60.9306 29.4372C60.1814 29.9745 59.4096 30.1864 58.668 29.7399C58.1156 29.407 58.0702 28.794 58.1232 28.1735C58.161 27.7195 58.1989 27.273 58.1989 26.819C58.214 22.6647 58.3729 18.4119 58.3956 14.2727C58.4032 12.2825 58.4183 12.3961 60.1587 13.1301C62.55 14.1365 63.1175 15.6651 63.1402 18.2833C63.1705 20.8485 63.1856 22.7706 63.1251 25.1164C63.2386 27.0006 62.8451 28.2341 60.9306 29.4372Z" fill="url(#paint1_linear)"/>
<path d="M50.6847 53.5688C49.8523 53.1829 49.2848 52.6229 49.2999 51.7603C49.315 51.1171 49.822 50.769 50.382 50.5117C50.7906 50.3225 51.1992 50.1258 51.5927 49.9063C55.2023 47.8481 58.9707 45.873 62.5726 43.8299C64.3055 42.8462 64.2147 42.9143 64.4417 44.7834C64.7595 47.3562 63.7153 48.6048 61.4603 49.9366C59.2507 51.2381 57.5859 52.2067 55.5276 53.3267C53.9461 54.3558 52.6748 54.6282 50.6847 53.5688Z" fill="url(#paint2_linear)"/>
<path d="M24.6538 56.6941C24.5705 55.7784 24.7748 55.0066 25.5315 54.5904C26.0991 54.2801 26.6439 54.545 27.1585 54.9082C27.5293 55.1731 27.9001 55.4228 28.286 55.6574C31.8652 57.761 35.4596 60.0463 39.0237 62.1575C40.7415 63.1715 40.6355 63.1261 39.1221 64.2536C37.0487 65.8124 35.4445 65.5325 33.1668 64.2309C30.9345 62.9596 29.2697 62.0062 27.272 60.7727C25.5996 59.9177 24.7294 58.9491 24.6538 56.6941Z" fill="url(#paint3_linear)"/>
<path d="M8.98222 35.6725C9.73136 35.1428 10.5032 34.9385 11.2448 35.385C11.7972 35.718 11.835 36.3309 11.7745 36.9514C11.7291 37.4054 11.6913 37.8519 11.6913 38.3059C11.6458 42.4603 11.4567 46.713 11.4037 50.8522C11.381 52.8424 11.3659 52.7289 9.63299 51.9873C7.24934 50.9657 6.69694 49.4296 6.68938 46.8114C6.68181 44.2461 6.68181 42.3241 6.74991 39.9782C6.65911 38.1016 7.06773 36.8606 8.98222 35.6725Z" fill="url(#paint4_linear)"/>
<path d="M19.4173 11.6242C20.2497 12.0101 20.8096 12.5777 20.7869 13.4479C20.7718 14.0911 20.2572 14.4316 19.6897 14.6889C19.2811 14.8781 18.8725 15.0673 18.479 15.2867C14.8543 17.3147 11.0707 19.267 7.45365 21.2799C5.71321 22.2485 5.81158 22.1804 5.59213 20.3113C5.29702 17.7384 6.34885 16.4899 8.61142 15.1808C10.8362 13.8943 12.5009 12.9409 14.5743 11.8361C16.1558 10.8145 17.4347 10.5497 19.4173 11.6242Z" fill="url(#paint5_linear)"/>
<path d="M52.3797 3.23983C49.3529 3.23983 46.8935 5.69914 46.8935 8.726C46.8935 10.7843 48.0362 12.5852 49.7161 13.5236C49.6858 18.3665 49.6707 23.2019 49.6934 28.0449C49.701 29.3691 49.1561 29.9745 48.0892 30.822C47.4686 31.3215 46.9692 31.7603 46.5757 32.1841C46.2201 32.5625 45.6828 32.7214 45.1758 32.6003L41.642 31.783C42.0884 33.3267 41.7025 35.0142 40.6355 36.2174L45.1758 37.2692C45.3423 37.3071 45.5012 37.3071 45.6601 37.2844C45.872 37.3676 46.1671 37.2541 46.5303 37.0498C47.6427 36.4066 51.2901 34.371 52.0165 33.9245C53.6283 32.9408 54.3472 32.0403 54.3018 30.1183C54.1883 24.7078 54.1656 19.2821 54.3245 13.8716C56.3979 13.0847 57.8659 11.0794 57.8659 8.74113C57.8735 5.69914 55.4066 3.23983 52.3797 3.23983ZM54.3396 11.7453C53.7796 12.1085 53.1062 12.328 52.3797 12.328C51.3279 12.328 50.3896 11.8815 49.7312 11.1626C49.141 10.5194 48.7853 9.66432 48.7853 8.73356C48.7853 6.74341 50.3971 5.13918 52.3797 5.13918C54.3699 5.13918 55.9741 6.75098 55.9741 8.73356C55.9817 9.98971 55.3309 11.1021 54.3396 11.7453Z" fill="url(#paint6_linear)"/>
<path d="M64.4114 30.6555C61.4678 30.6555 59.0539 32.9862 58.9252 35.9071C54.7028 38.2984 50.4879 40.6971 46.2881 43.1338C45.1455 43.7997 44.3509 43.6256 43.0872 43.1186C42.2927 42.8008 41.6268 42.5814 41.0365 42.4527C40.4993 42.3392 40.0755 41.9457 39.9242 41.4236L38.9253 38.0259C38.04 38.9189 36.8368 39.4032 35.6033 39.4032C35.2553 39.4032 34.892 39.3653 34.5515 39.2821L35.8682 43.777C35.9514 44.0569 36.133 44.284 36.3601 44.4277C36.466 44.5791 36.6627 44.7153 36.92 44.8666C38.0324 45.5174 41.6116 47.6589 42.3608 48.0675C44.018 48.9756 45.1531 49.1496 46.8027 48.1583C51.3732 45.3963 56.0043 42.7176 60.7111 40.1901C61.6873 41.0831 62.9888 41.6279 64.4114 41.6279C67.4383 41.6279 69.8976 39.1686 69.8976 36.1417C69.8976 33.1149 67.4383 30.6555 64.4114 30.6555ZM64.4114 39.7437C63.7152 39.7437 63.0645 39.5469 62.5121 39.1988C61.4905 38.5632 60.8095 37.4357 60.8095 36.1417C60.8095 35.612 60.923 35.105 61.1348 34.651C61.7024 33.41 62.9585 32.5398 64.4114 32.5398C66.4016 32.5398 68.0058 34.1516 68.0058 36.1342C68.0134 38.1319 66.4016 39.7437 64.4114 39.7437Z" fill="url(#paint7_linear)"/>
<path d="M46.9238 54.2272C45.872 54.2272 44.8882 54.5223 44.0483 55.0444C39.8864 52.5775 35.7093 50.1258 31.5171 47.7043C30.3745 47.046 30.1323 46.2665 29.9356 44.912C29.8145 44.0796 29.6707 43.3986 29.4967 42.8311C29.3378 42.3165 29.4589 41.7565 29.8221 41.363L32.2738 38.7524C30.7074 38.3589 29.4437 37.186 28.9519 35.6499L25.7737 39.0475C25.5921 39.2367 25.4861 39.4713 25.471 39.7134V39.721C25.3877 39.8875 25.365 40.1296 25.365 40.4247C25.3575 41.7111 25.2742 45.8882 25.2969 46.7433C25.3423 48.6351 25.751 49.7096 27.4309 50.6403C32.183 53.2888 36.8974 56.013 41.5133 58.8961C41.4755 59.1685 41.4528 59.4409 41.4528 59.7209C41.4528 62.7478 43.9197 65.2071 46.9389 65.2071C49.9658 65.2071 52.4251 62.7478 52.4251 59.7209C52.4251 56.6941 49.9507 54.2272 46.9238 54.2272ZM46.9238 63.3077C45.0245 63.3077 43.4656 61.8321 43.337 59.9631C43.3294 59.8798 43.3294 59.7966 43.3294 59.7133C43.3294 58.0259 44.4872 56.6108 46.0536 56.2249C46.3336 56.1568 46.6211 56.119 46.9238 56.119C48.914 56.119 50.5182 57.7307 50.5182 59.7133C50.5258 61.7035 48.914 63.3077 46.9238 63.3077Z" fill="url(#paint8_linear)"/>
<path d="M29.2924 28.9151L24.7445 27.8557C24.4645 27.7952 24.1846 27.833 23.95 27.9541C23.8062 27.9919 23.6322 28.0752 23.443 28.1811C22.323 28.8167 18.6606 30.822 17.9265 31.2685C16.3147 32.2446 15.5883 33.1376 15.611 35.0596C15.6867 40.5836 15.664 46.1152 15.4521 51.6392C13.5754 52.5094 12.2739 54.4163 12.2739 56.6184C12.2739 59.6452 14.7332 62.1045 17.7601 62.1045C20.7869 62.1045 23.2462 59.6452 23.2462 56.6184C23.2462 54.4163 21.9371 52.5094 20.0605 51.6392C20.1286 46.8114 20.1815 41.9835 20.1891 37.1557C20.1967 35.8315 20.7491 35.2337 21.816 34.3937C22.4744 33.8791 23.0041 33.4175 23.4051 32.9711C23.7608 32.5927 24.2981 32.4338 24.8051 32.5473L28.2481 33.3419C27.8319 31.7982 28.2178 30.1107 29.2924 28.9151ZM21.3696 56.6108C21.3696 58.601 19.7578 60.2052 17.7752 60.2052C15.785 60.2052 14.1808 58.5934 14.1808 56.6108C14.1808 55.4909 14.6954 54.4844 15.4975 53.8261C16.118 53.3191 16.9125 53.0089 17.7752 53.0089C18.6379 53.0089 19.4324 53.3115 20.0529 53.8185C20.855 54.4844 21.3696 55.4909 21.3696 56.6108Z" fill="url(#paint9_linear)"/>
<path d="M34.0445 21.3555C33.9462 21.015 33.6964 20.7502 33.4013 20.614H33.3938C33.3105 20.5534 33.2197 20.4929 33.1138 20.4324C32.009 19.774 28.4448 17.6022 27.6957 17.1861C26.0385 16.2704 24.911 16.0813 23.2538 17.065C18.4033 19.9405 13.4846 22.7328 8.48276 25.3434C7.6201 24.7759 6.59097 24.4505 5.48617 24.4505C2.45932 24.4505 0 26.9098 0 29.9367C0 32.9635 2.45932 35.4228 5.48617 35.4228C8.51302 35.4228 10.9723 32.9635 10.9723 29.9367C10.9723 29.7097 10.9572 29.4902 10.9345 29.2708C15.2099 26.8947 19.4702 24.511 23.723 22.0896C24.8732 21.4312 25.6677 21.6128 26.9239 22.1274C27.7108 22.4452 28.3692 22.6647 28.9518 22.8009C29.474 22.9219 29.875 23.3154 30.0264 23.8224L30.9798 27.099C32.1225 25.9564 33.7721 25.4796 35.3536 25.8353L34.0445 21.3555ZM5.49374 33.5386C3.50358 33.5386 1.89935 31.9268 1.89935 29.9442C1.89935 27.9617 3.51115 26.3499 5.49374 26.3499C5.8948 26.3499 6.28829 26.418 6.65151 26.539C8.07413 27.0233 9.09569 28.3627 9.09569 29.9442C9.09569 30.0729 9.08813 30.194 9.07299 30.3226C8.88381 32.1311 7.34769 33.5386 5.49374 33.5386Z" fill="url(#paint10_linear)"/>
<path d="M44.5553 18.5027C44.5023 16.6109 44.0785 15.544 42.3911 14.6208C37.4422 11.9193 32.5235 9.11949 27.726 6.15317C27.7335 6.06237 27.7335 5.97156 27.7335 5.88076C27.7335 2.8539 25.2667 0.394585 22.2474 0.394585C19.2205 0.394585 16.7612 2.8539 16.7612 5.88076C16.7612 8.90761 19.2205 11.3669 22.2474 11.3669C23.4959 11.3669 24.6462 10.9507 25.5618 10.247C29.7994 12.7139 34.0445 15.1732 38.3124 17.5947C39.4626 18.2454 39.7123 19.0249 39.9242 20.3718C40.0528 21.1891 40.189 21.8474 40.3631 22.4149C40.522 22.9219 40.3934 23.4668 40.0226 23.8527L37.6541 26.3801C39.2204 26.7736 40.4842 27.9541 40.9685 29.4902L44.1542 26.0926C44.3283 25.9034 44.4266 25.6915 44.4569 25.4569V25.4494C44.5099 25.2829 44.5326 25.071 44.5326 24.8213C44.525 23.5349 44.578 19.3578 44.5553 18.5027ZM23.7003 9.16489C23.2538 9.36164 22.7619 9.47514 22.2398 9.47514C20.2496 9.47514 18.6454 7.86334 18.6454 5.88076C18.6454 3.8906 20.2572 2.28637 22.2398 2.28637C23.9878 2.28637 25.4483 3.53494 25.7661 5.18458C25.8115 5.41159 25.8342 5.64618 25.8342 5.88076C25.8342 7.34121 24.9564 8.60492 23.7003 9.16489Z" fill="url(#paint11_linear)"/>
<defs>
<linearGradient id="paint0_linear" x1="37.276" y1="0" x2="37.276" y2="10.7901" gradientUnits="userSpaceOnUse">
<stop stop-color="#FF9E75"/>
<stop offset="1" stop-color="#D4C17F"/>
</linearGradient>
<linearGradient id="paint1_linear" x1="60.6366" y1="12.642" x2="60.6366" y2="29.982" gradientUnits="userSpaceOnUse">
<stop stop-color="#FF9E75"/>
<stop offset="1" stop-color="#D4C17F"/>
</linearGradient>
<linearGradient id="paint2_linear" x1="56.8986" y1="43.202" x2="56.8986" y2="54.2427" gradientUnits="userSpaceOnUse">
<stop stop-color="#FF9E75"/>
<stop offset="1" stop-color="#D4C17F"/>
</linearGradient>
<linearGradient id="paint3_linear" x1="32.4605" y1="54.4535" x2="32.4605" y2="65.3179" gradientUnits="userSpaceOnUse">
<stop stop-color="#FF9E75"/>
<stop offset="1" stop-color="#D4C17F"/>
</linearGradient>
<linearGradient id="paint4_linear" x1="9.24091" y1="35.1401" x2="9.24091" y2="52.4813" gradientUnits="userSpaceOnUse">
<stop stop-color="#FF9E75"/>
<stop offset="1" stop-color="#D4C17F"/>
</linearGradient>
<linearGradient id="paint5_linear" x1="13.1655" y1="10.9341" x2="13.1655" y2="21.8958" gradientUnits="userSpaceOnUse">
<stop stop-color="#FF9E75"/>
<stop offset="1" stop-color="#D4C17F"/>
</linearGradient>
<linearGradient id="paint6_linear" x1="49.2507" y1="3.23983" x2="49.2507" y2="37.3119" gradientUnits="userSpaceOnUse">
<stop stop-color="#FF9E75"/>
<stop offset="1" stop-color="#D4C17F"/>
</linearGradient>
<linearGradient id="paint7_linear" x1="52.2246" y1="30.6555" x2="52.2246" y2="48.8286" gradientUnits="userSpaceOnUse">
<stop stop-color="#FF9E75"/>
<stop offset="1" stop-color="#D4C17F"/>
</linearGradient>
<linearGradient id="paint8_linear" x1="38.8591" y1="35.6499" x2="38.8591" y2="65.2071" gradientUnits="userSpaceOnUse">
<stop stop-color="#FF9E75"/>
<stop offset="1" stop-color="#D4C17F"/>
</linearGradient>
<linearGradient id="paint9_linear" x1="20.7831" y1="27.8273" x2="20.7831" y2="62.1045" gradientUnits="userSpaceOnUse">
<stop stop-color="#FF9E75"/>
<stop offset="1" stop-color="#D4C17F"/>
</linearGradient>
<linearGradient id="paint10_linear" x1="17.6768" y1="16.4085" x2="17.6768" y2="35.4228" gradientUnits="userSpaceOnUse">
<stop stop-color="#FF9E75"/>
<stop offset="1" stop-color="#D4C17F"/>
</linearGradient>
<linearGradient id="paint11_linear" x1="30.6611" y1="0.394585" x2="30.6611" y2="29.4902" gradientUnits="userSpaceOnUse">
<stop stop-color="#FF9E75"/>
<stop offset="1" stop-color="#D4C17F"/>
</linearGradient>
</defs>
</svg>
