<svg width="48" height="49" viewBox="0 0 48 49" fill="none" xmlns="http://www.w3.org/2000/svg">
<path d="M47.7794 6.29274C47.5107 5.90361 47.0637 5.77779 46.6824 5.98413C46.1117 6.29285 45.531 6.56462 44.9418 6.79865C45.7054 5.61811 46.299 4.27149 46.686 2.81472C46.8062 2.36211 46.6843 1.86592 46.3798 1.56875C46.0753 1.27159 45.6516 1.23556 45.3163 1.47793C43.6788 2.66167 41.9188 3.51394 40.0774 4.01562C38.1541 1.76046 35.5579 0.478577 32.8729 0.478577C27.1405 0.478577 22.4769 6.16851 22.4769 13.1625C22.4769 13.6215 22.4975 14.0836 22.5381 14.5457C21.0643 14.3745 19.6053 14.0513 18.1866 13.581C17.6871 13.4154 18.1357 13.8903 18 14.5C17.8643 15.1097 17.1954 15.6231 17.6951 15.7887C19.6162 16.4255 21.6058 16.8109 23.6086 16.9339C23.9021 16.952 24.1837 16.802 24.3725 16.5288C24.5614 16.2555 24.6347 15.8904 24.5706 15.5417C24.4255 14.7509 24.3519 13.9504 24.3519 13.1625C24.3519 7.42992 28.1745 2.76622 32.8729 2.76622C35.2209 2.76622 37.4852 3.96117 39.0854 6.04464C39.3058 6.33174 39.6316 6.46065 39.9483 6.38538C41.2355 6.08021 42.4888 5.62154 43.6966 5.01486C43.0196 6.16154 42.1548 7.1371 41.1473 7.87292C40.7678 8.15007 40.5987 8.71306 40.7415 9.22366C40.8842 9.73426 41.2999 10.0538 41.7392 9.99025C42.6051 9.86489 43.4628 9.6693 44.3076 9.40496C43.5392 10.3859 42.6962 11.28 41.7841 12.0802C41.5329 12.3008 41.3869 12.6583 41.3942 13.0358L41.4227 14.5172C41.4168 30.0888 31.7018 46.1908 15.4477 46.1908C11.7332 46.1908 8.09373 45.2273 4.7462 43.3777C8.68688 43.0143 12.3849 41.27 15.5208 38.2782C15.8331 37.9802 15.958 37.4749 15.8328 37.0159C15.7075 36.557 15.3592 36.2437 14.9629 36.2336C11.8247 36.1537 9.01707 33.9937 7.58279 30.6994C7.68507 30.7028 7.7881 30.7045 7.89169 30.7045C8.82169 30.7045 9.74016 30.56 10.6216 30.2751C11.0427 30.139 11.3315 29.6671 11.3186 29.1358C11.3058 28.6045 10.9947 28.154 10.5678 28.0484C7.07082 27.1837 4.4206 23.7322 3.84911 19.5358C4.8827 19.9967 5.95398 20.2464 7.04991 20.2806C7.46738 20.2928 7.84163 19.9681 7.96773 19.4823C8.09363 18.9964 7.94101 18.4675 7.59338 18.185C5.21982 16.2571 3.80279 13.0254 3.80279 9.54016C3.80279 8.25119 3.99648 6.98269 4.36923 5.80078C5.89763 7.85977 15.6091 14.146 17.5 15.6946C17.9299 16.0468 18.5 15 18 14.5C18.2887 13.9756 18.6165 13.9331 18.1866 13.581C16.0474 11.8291 6.50738 5.45203 4.87464 3.00997C4.68057 2.71967 4.38198 2.56422 4.07617 2.59247C3.77007 2.6213 3.49492 2.83107 3.33958 3.1542C2.41605 5.07525 1.92789 7.28351 1.92789 9.54027C1.92789 12.3289 2.67151 14.9844 4.00051 17.146C3.74758 17.0111 3.49726 16.8605 3.25023 16.6941C2.95979 16.4985 2.60626 16.5047 2.32051 16.7103C2.03486 16.9161 1.85955 17.2906 1.85955 17.6954V17.8361C1.85955 22.0679 3.59045 25.9121 6.29579 28.2385C6.29017 28.2373 6.28454 28.236 6.27891 28.2347C5.95407 28.16 5.6207 28.2993 5.40179 28.6018C5.18298 28.9045 5.11098 29.3253 5.21242 29.7094C6.31238 33.8755 9.07097 36.9872 12.4351 38.0888C9.65194 40.1067 6.49707 41.1616 3.18958 41.1616C2.47173 41.1616 1.76908 41.1135 1.0413 41.0148C0.608736 40.9561 0.19933 41.2688 0.0539239 41.7697C-0.0915759 42.2707 0.0649864 42.8279 0.431736 43.1146C4.91945 46.6238 10.1119 48.4786 15.4477 48.4786C19.7393 48.4786 23.756 47.4384 27.3859 45.3864C30.7157 43.5046 33.6579 40.815 36.1308 37.3925C40.6855 31.0891 43.2977 22.7463 43.2977 14.5034C43.2977 14.4945 43.2976 14.4855 43.2975 14.4765L43.2801 13.5759C45.0658 11.9265 46.599 9.94004 47.8425 7.66418C48.0739 7.24085 48.0481 6.68186 47.7794 6.29274Z" fill="#D4C17F"/>
<path d="M35.3164 28.2564C34.8725 27.9315 34.2965 28.107 34.0301 28.6487L34.0285 28.6521C33.762 29.1938 33.9068 29.8947 34.3508 30.2197C34.5014 30.3301 34.6673 30.3824 34.8312 30.3824C35.1504 30.3824 35.4619 30.1835 35.638 29.8257C35.9043 29.284 35.7604 28.5814 35.3164 28.2564Z" fill="#D4C17F"/>
<path d="M33.4863 31.6991C33.0868 31.2974 32.4959 31.3667 32.1666 31.8542C30.5255 34.2835 28.5853 36.2879 26.3998 37.8118C25.9503 38.1253 25.7942 38.824 26.0511 39.3725C26.2242 39.7419 26.5404 39.9489 26.8659 39.9489C27.0236 39.9489 27.1835 39.9003 27.3302 39.7981C29.7133 38.1362 31.8273 35.9531 33.6134 33.3093C33.9428 32.8218 33.8859 32.101 33.4863 31.6991Z" fill="#D4C17F"/>
</svg>
