<svg width="48" height="48" viewBox="0 0 48 48" fill="none" xmlns="http://www.w3.org/2000/svg">
<path d="M40.7616 32.1344L40.2859 31.3573C39.3562 29.8388 38.2311 28.4465 36.9418 27.2187L35.3513 25.7043C35.2002 25.5603 35.1775 25.3317 35.2974 25.1608L37.4691 22.0663C37.7823 21.6201 38.0712 21.1501 38.3281 20.6695L40.1838 17.1973C40.5072 16.5923 40.49 15.8795 40.1375 15.2907C39.7852 14.7021 39.165 14.35 38.4789 14.3493L34.4622 14.3447H34.4598C33.6183 14.3447 32.8562 14.8424 32.518 15.613L32.0926 16.5824C31.0072 19.0556 29.5255 21.3107 27.6875 23.2879V16.211C27.6875 15.1814 26.8498 14.3438 25.8203 14.3438H20.1315C19.1974 14.3438 18.4375 15.1037 18.4375 16.0378C18.4375 16.3945 18.5475 16.7363 18.7554 17.0258L19.1535 17.5803C19.5438 18.1237 19.75 18.7647 19.75 19.4339V24.6051C19.0485 23.7903 18.1943 22.6838 17.4713 21.4117C16.364 19.4636 15.5703 17.192 15.1958 16.0112C14.8793 15.0139 13.964 14.3438 12.9178 14.3438H8.84963C8.27551 14.3438 7.74751 14.6063 7.40063 15.0639C7.05404 15.5217 6.94444 16.1013 7.10016 16.6541L7.85907 19.3476C8.32416 20.9986 8.96354 22.6058 9.75938 24.1248C14.0124 29.9692 12.0412 27.0455 12.5 26.8052C12.9587 26.5649 14.7403 29.7525 14.5 29.2939C14 27.5 10.0938 20.3651 9.66385 18.8392L8.92557 16.2188H12.9179C13.1432 16.2188 13.3403 16.3631 13.4085 16.5781C13.8053 17.829 14.6491 20.2409 15.8413 22.3382C16.8195 24.0591 18.0063 25.4927 18.8298 26.3923C19.2809 26.8852 19.975 27.0474 20.5981 26.8052C21.2219 26.5628 21.625 25.9738 21.625 25.3047V19.4339C21.625 18.3699 21.297 17.3508 20.6767 16.4867L20.4842 16.2188H25.8125V23.737C25.8125 24.2871 26.0887 24.7928 26.5513 25.0902C27.0139 25.3877 27.5887 25.4288 28.0891 25.2004L28.4756 25.0239C28.6538 24.9427 28.8119 24.8294 28.9461 24.687C30.9806 22.5264 32.6169 20.0531 33.8096 17.3358L34.2351 16.3664C34.2742 16.2772 34.3624 16.2196 34.4598 16.2196L38.4768 16.2242C38.4905 16.2242 38.5112 16.2243 38.5288 16.2537C38.5465 16.2833 38.5367 16.3014 38.5303 16.3135L36.6746 19.7857C36.4533 20.1997 36.2042 20.6047 35.9344 20.9892L33.7627 24.0837C33.1054 25.0205 33.2298 26.2731 34.0584 27.0622L35.6488 28.5766C36.8201 29.6919 37.8423 30.957 38.6869 32.3363L39.1626 33.1134C39.174 33.1321 39.2088 33.189 39.1655 33.2663C39.1222 33.3437 39.0554 33.3437 39.0336 33.3437H35.5658C35.1202 33.3437 34.6866 33.1605 34.376 32.8411L30.9085 29.2758C30.0914 28.4356 29.0544 27.8586 27.9097 27.6073C27.3966 27.4945 26.8669 27.6187 26.4572 27.9483C26.0475 28.2778 25.8126 28.7682 25.8126 29.2939V32.7969C25.8126 33.0984 25.5673 33.3438 25.2657 33.3438C22.5787 33.3438 19.9234 32.4447 17.789 30.8123C16.9291 30.1546 11.8594 24.2639 11.6146 24.687C11.2522 24.3174 12.8698 26.4427 12.5 26.8052C12.1302 27.1677 11.2367 26.1402 14.0124 29.9692C14.8321 30.8053 15.7194 31.59 16.6498 32.3016C19.1093 34.1827 22.1692 35.2188 25.2656 35.2188C26.601 35.2188 27.6875 34.1323 27.6875 32.7969V29.4825C28.4014 29.6731 29.047 30.0512 29.5643 30.5831L33.0318 34.1484C33.6933 34.8286 34.6169 35.2188 35.5658 35.2188H39.0336C39.766 35.2188 40.4434 34.8218 40.8012 34.1828C41.1592 33.5439 41.144 32.759 40.7616 32.1344Z" fill="#D4C17F"/>
<path d="M19.206 41.625H11.5654C11.0477 41.625 10.6279 42.0447 10.6279 42.5625C10.6279 43.0803 11.0477 43.5 11.5654 43.5H19.206C19.7238 43.5 20.1435 43.0803 20.1435 42.5625C20.1435 42.0447 19.7237 41.625 19.206 41.625Z" fill="#D4C17F"/>
<path d="M23.4717 41.625H23.4605C22.9428 41.625 22.523 42.0447 22.523 42.5625C22.523 43.0803 22.9428 43.5 23.4605 43.5H23.4717C23.9894 43.5 24.4092 43.0803 24.4092 42.5625C24.4092 42.0447 23.9894 41.625 23.4717 41.625Z" fill="#D4C17F"/>
<path d="M41.8125 0H6.1875C2.77566 0 0 2.77566 0 6.1875V41.8125C0 45.2243 2.77566 48 6.1875 48H41.8125C45.2243 48 48 45.2243 48 41.8125V6.1875C48 2.77566 45.2243 0 41.8125 0ZM46.125 41.8125C46.125 44.1904 44.1904 46.125 41.8125 46.125H6.1875C3.80962 46.125 1.875 44.1904 1.875 41.8125V6.1875C1.875 3.80962 3.80962 1.875 6.1875 1.875H41.8125C44.1904 1.875 46.125 3.80962 46.125 6.1875V41.8125Z" fill="#D4C17F"/>
</svg>
