<svg width="48" height="38" viewBox="0 0 48 38" fill="none" xmlns="http://www.w3.org/2000/svg">
<path d="M47.0054 6.27693C46.3898 3.74698 44.574 1.75454 42.2671 1.07719C39.8882 0.376828 29.145 0.0929285 24 0C23.4853 -0.00760048 24.0086 0.517588 24 1.07719C23.9914 1.63678 23.4823 1.99068 24 2C31.1213 2.1287 40.0643 2.52938 41.775 3.03294C43.4372 3.52099 44.7466 4.96154 45.1922 6.79305C46.1137 10.5713 46.125 18.6495 46.125 18.7306C46.125 18.8117 46.1138 26.8899 45.1921 30.6688C44.7466 32.4997 43.4372 33.9402 41.7744 34.4285C38.3387 35.4398 24.143 35.4517 24 35.4517C23.857 35.4517 9.66131 35.4397 6.225 34.4283C4.56281 33.9402 3.25341 32.4997 2.80781 30.6682C1.88625 26.8899 1.875 18.8117 1.875 18.7307C1.875 18.6495 1.88625 10.5713 2.80791 6.79254C3.25341 4.96164 4.56281 3.52109 6.22556 3.03284C7.97372 2.51824 16.6556 2.12211 24 2C24.5177 1.99149 24.0079 1.63678 24 1.07719C23.992 0.517588 24.5164 -0.00486431 24 0C18.6967 0.0880642 8.16169 0.362336 5.73347 1.07709C3.426 1.75454 1.61016 3.74708 0.994781 6.27642C0.0113438 10.3085 0 18.3886 0 18.7307C0 19.0727 0.0113437 27.1528 0.994594 31.1843C1.61016 33.7142 3.426 35.7067 5.73291 36.384C9.40866 37.466 23.406 37.4785 24 37.4785C24.594 37.4785 38.5913 37.466 42.2665 36.3842C44.574 35.7068 46.3898 33.7142 47.0052 31.1849C47.9887 27.1528 48 19.0727 48 18.7307C48 18.3886 47.9887 10.3085 47.0054 6.27693Z" fill="#D4C17F"/>
<path d="M5.4375 16.0649C4.91972 16.0649 4.5 16.5186 4.5 17.0783V25.3375C4.5 25.8972 4.91972 26.3509 5.4375 26.3509C5.95528 26.3509 6.375 25.8972 6.375 25.3375V17.0783C6.375 16.5186 5.95528 16.0649 5.4375 16.0649Z" fill="#D4C17F"/>
<path d="M5.4375 11.4528C4.91972 11.4528 4.5 11.9065 4.5 12.4662V12.4781C4.5 13.0378 4.91972 13.4915 5.4375 13.4915C5.95528 13.4915 6.375 13.0378 6.375 12.4781V12.4662C6.375 11.9065 5.95528 11.4528 5.4375 11.4528Z" fill="#D4C17F"/>
<path d="M31.6041 18.0252L19.9791 10.7288C19.6891 10.5467 19.3312 10.5459 19.0406 10.7268C18.75 10.9077 18.5708 11.2427 18.5708 11.6051V26.1981C18.5708 26.5606 18.75 26.8955 19.0406 27.0764C19.1854 27.1665 19.3468 27.2115 19.5083 27.2115C19.671 27.2115 19.8336 27.1658 19.9791 27.0744L31.6041 19.778C31.8932 19.5966 32.0709 19.2628 32.0709 18.9016C32.0709 18.5404 31.8931 18.2066 31.6041 18.0252ZM20.4458 24.4378V13.3654L29.2663 18.9016L20.4458 24.4378Z" fill="#D4C17F"/>
</svg>
